<?xml version="1.0" encoding="utf-8"?>
<!-- Generator: Adobe Illustrator 16.0.0, SVG Export Plug-In . SVG Version: 6.00 Build 0)  -->
<!DOCTYPE svg PUBLIC "-//W3C//DTD SVG 1.1//EN" "http://www.w3.org/Graphics/SVG/1.1/DTD/svg11.dtd">
<svg version="1.1" id="Livello_1" xmlns="http://www.w3.org/2000/svg" xmlns:xlink="http://www.w3.org/1999/xlink" x="0px" y="0px"
	 width="327.5px" height="164.992px" viewBox="0 0 327.5 164.992" enable-background="new 0 0 327.5 164.992" xml:space="preserve">
<g>
	<path fill="#FFFFFF" d="M53.935,42.61c-1.296-0.872-2.808-1.309-4.536-1.309c-1.792,0-3.279,0.371-4.464,1.113
		c-1.184,0.742-2.136,1.71-2.854,2.903c-0.722,1.194-1.232,2.541-1.536,4.041c-0.306,1.5-0.474,3.008-0.504,4.524
		c0,1.581,0.11,3.202,0.336,4.863c0.224,1.662,0.664,3.153,1.319,4.476c0.655,1.323,1.592,2.412,2.809,3.267
		c1.216,0.855,2.8,1.282,4.752,1.282c1.12,0,2.119-0.128,3-0.388c0.88-0.258,1.688-0.598,2.424-1.018
		c0.736-0.42,1.408-0.873,2.017-1.357c0.607-0.485,1.167-0.97,1.681-1.455l1.488,0.824c-0.288,0.938-0.562,1.885-0.816,2.841
		c-0.257,0.957-0.496,1.925-0.72,2.905c-1.44,0.522-3.064,1.021-4.872,1.494c-1.81,0.474-3.912,0.711-6.312,0.711
		c-2.561,0-4.968-0.38-7.224-1.14c-2.256-0.759-4.217-1.891-5.88-3.394c-1.664-1.503-2.978-3.328-3.938-5.479
		c-0.96-2.148-1.438-4.581-1.438-7.296c0-2.908,0.512-5.485,1.536-7.732c1.022-2.246,2.424-4.146,4.198-5.696
		c1.776-1.552,3.864-2.723,6.266-3.515c2.398-0.792,4.96-1.188,7.68-1.188c1.92,0,3.864,0.219,5.832,0.655
		c1.968,0.436,3.864,1.01,5.688,1.721c-0.098,0.55-0.218,1.091-0.36,1.624c-0.146,0.533-0.28,1.075-0.408,1.624
		c-0.16,0.679-0.288,1.35-0.384,2.012c-0.096,0.663-0.192,1.333-0.288,2.013h-1.92C56.087,44.792,55.231,43.483,53.935,42.61z"/>
	<path fill="#FFFFFF" d="M82.759,47.458c1.76,0.679,3.224,1.608,4.392,2.787c1.168,1.181,2.049,2.546,2.642,4.097
		c0.592,1.552,0.888,3.2,0.888,4.945c0,2.165-0.368,4.057-1.104,5.672c-0.736,1.616-1.735,2.957-3,4.023
		c-1.265,1.067-2.761,1.851-4.487,2.352c-1.729,0.502-3.585,0.752-5.568,0.752c-2.048,0-3.936-0.243-5.664-0.728
		c-1.728-0.484-3.216-1.252-4.464-2.303c-1.248-1.05-2.216-2.383-2.904-4c-0.688-1.615-1.03-3.522-1.03-5.721
		c0-2.101,0.375-3.958,1.128-5.575c0.751-1.615,1.774-2.965,3.071-4.048c1.296-1.082,2.8-1.898,4.513-2.448
		c1.711-0.549,3.543-0.824,5.496-0.824C78.967,46.44,80.999,46.78,82.759,47.458z M79.759,55.749
		c-0.048-1.164-0.177-2.197-0.384-3.103c-0.209-0.905-0.528-1.632-0.96-2.182c-0.434-0.55-1.049-0.824-1.85-0.824
		c-0.735,0-1.318,0.234-1.752,0.703c-0.432,0.469-0.761,1.114-0.982,1.938c-0.226,0.824-0.369,1.811-0.434,2.958
		c-0.063,1.146-0.096,2.384-0.096,3.708c0,1.229,0.016,2.448,0.048,3.66c0.031,1.212,0.151,2.296,0.36,3.248
		c0.207,0.954,0.535,1.722,0.982,2.304c0.448,0.581,1.072,0.872,1.872,0.872c0.832,0,1.464-0.267,1.896-0.8s0.751-1.252,0.96-2.157
		c0.208-0.904,0.327-1.938,0.358-3.103c0.032-1.164,0.05-2.376,0.05-3.637C79.832,58.108,79.807,56.912,79.759,55.749z"/>
	<path fill="#FFFFFF" d="M116.838,67.141c-0.16,0.323-0.305,0.646-0.433,0.97c-0.128,0.323-0.247,0.654-0.359,0.994
		c-0.112,0.339-0.232,0.735-0.359,1.188c-1.279,0.614-2.673,1.066-4.177,1.357c-1.504,0.291-2.976,0.437-4.416,0.437
		c-1.888,0-3.536-0.194-4.943-0.582c-1.408-0.388-2.615-0.921-3.624-1.6c-1.008-0.679-1.832-1.471-2.473-2.376
		c-0.64-0.904-1.151-1.834-1.535-2.787c-0.385-0.953-0.647-1.907-0.792-2.86c-0.145-0.953-0.217-1.834-0.217-2.643
		c0-1.745,0.256-3.395,0.769-4.945c0.513-1.55,1.297-2.9,2.353-4.048c1.057-1.146,2.384-2.061,3.983-2.739
		c1.601-0.679,3.505-1.018,5.713-1.018c1.92,0,3.734,0.372,5.447,1.115c1.711,0.743,3.145,1.891,4.296,3.441
		c0.96,1.391,1.553,2.869,1.775,4.437c0.222,1.568,0.368,3.078,0.433,4.532c-0.641-0.031-1.327-0.064-2.063-0.097
		c-0.736-0.031-1.456-0.049-2.16-0.049c-3.455,0-6.911,0.049-10.367,0.146c0,0.97,0.111,1.899,0.336,2.788
		c0.225,0.89,0.583,1.689,1.08,2.399c0.495,0.712,1.128,1.277,1.896,1.697s1.68,0.63,2.735,0.63c0.513,0,1.071-0.072,1.681-0.218
		c0.606-0.146,1.2-0.34,1.775-0.582c0.576-0.242,1.128-0.533,1.655-0.873c0.528-0.339,0.984-0.719,1.368-1.139l1.2,1.309
		C117.19,66.447,116.999,66.819,116.838,67.141z M109.086,54.246c-0.018-0.808-0.104-1.543-0.265-2.206
		c-0.159-0.662-0.416-1.204-0.769-1.624c-0.352-0.42-0.863-0.63-1.535-0.63c-0.705,0-1.248,0.218-1.633,0.654
		c-0.384,0.437-0.664,0.986-0.84,1.648c-0.176,0.662-0.28,1.398-0.312,2.205c-0.031,0.809-0.048,1.584-0.048,2.327h5.424
		C109.111,55.845,109.102,55.053,109.086,54.246z"/>
	<path fill="#FFFFFF" d="M153.663,42.586c-1.408-0.922-3.186-1.382-5.328-1.382c-1.952,0-3.568,0.404-4.849,1.212
		c-1.279,0.808-2.297,1.866-3.049,3.175c-0.752,1.31-1.279,2.788-1.584,4.437c-0.304,1.649-0.456,3.297-0.456,4.944
		c0,4.558,0.704,7.927,2.112,10.108c1.408,2.181,3.664,3.272,6.769,3.272c0.543,0,1.023-0.04,1.439-0.121
		c0.416-0.08,0.848-0.186,1.296-0.315c0-1.938-0.032-3.846-0.096-5.721c-0.064-1.874-0.128-3.781-0.192-5.721
		c0.96,0.13,1.904,0.235,2.832,0.315c0.928,0.081,1.809,0.121,2.642,0.121c0.896,0,1.814-0.024,2.76-0.072
		c0.942-0.049,1.848-0.17,2.712-0.364c-0.096,2.134-0.168,4.081-0.216,5.842c-0.048,1.763-0.072,3.435-0.072,5.019
		c0,0.452,0.016,0.969,0.048,1.551c0.032,0.582,0.064,1.051,0.097,1.406c-0.929,0.259-1.952,0.518-3.071,0.775
		c-1.121,0.259-2.272,0.485-3.456,0.679c-1.186,0.194-2.376,0.347-3.576,0.461c-1.2,0.112-2.345,0.17-3.432,0.17
		c-2.688,0-5.24-0.364-7.656-1.091c-2.417-0.728-4.544-1.834-6.384-3.321c-1.842-1.486-3.298-3.337-4.368-5.551
		c-1.072-2.214-1.608-4.775-1.608-7.685c0-2.715,0.504-5.171,1.513-7.369c1.009-2.197,2.407-4.072,4.199-5.623
		c1.792-1.552,3.912-2.747,6.36-3.588c2.448-0.84,5.128-1.261,8.04-1.261c2.304,0,4.624,0.243,6.96,0.728
		c2.336,0.485,4.56,1.196,6.672,2.133c-0.544,1.294-0.983,2.489-1.32,3.588c-0.336,1.1-0.632,2.327-0.888,3.685h-1.775
		C156.094,44.986,155.07,43.507,153.663,42.586z"/>
	<path fill="#FFFFFF" d="M170.053,64.765c0.465,0.679,1.032,1.253,1.704,1.722c0.673,0.469,1.433,0.832,2.28,1.091
		c0.848,0.259,1.734,0.388,2.664,0.388c0.574,0,1.15-0.064,1.729-0.194c0.575-0.128,1.096-0.331,1.561-0.605
		c0.464-0.274,0.841-0.638,1.129-1.091c0.287-0.452,0.432-0.985,0.432-1.6c0-0.582-0.128-1.099-0.384-1.552
		c-0.257-0.452-0.704-0.904-1.345-1.357c-0.641-0.452-1.487-0.929-2.545-1.43c-1.057-0.501-2.385-1.091-3.982-1.77
		c-2.146-0.905-3.889-2.206-5.232-3.903c-1.344-1.696-2.016-3.772-2.016-6.229c0-1.939,0.336-3.619,1.008-5.042
		c0.672-1.422,1.584-2.602,2.736-3.539c1.15-0.937,2.503-1.64,4.057-2.108c1.551-0.469,3.207-0.703,4.967-0.703
		c1.729,0,3.44,0.193,5.139,0.582c1.693,0.388,3.357,0.889,4.99,1.502c-0.479,1.1-0.889,2.296-1.225,3.588
		c-0.336,1.293-0.552,2.505-0.646,3.636h-1.92c-0.258-1.454-0.922-2.682-1.991-3.685c-1.072-1.001-2.474-1.502-4.2-1.502
		c-0.514,0-1.064,0.064-1.656,0.193c-0.593,0.13-1.136,0.332-1.632,0.606c-0.496,0.274-0.903,0.63-1.226,1.066
		c-0.318,0.437-0.479,0.978-0.479,1.624c0,0.614,0.16,1.139,0.479,1.575c0.32,0.437,0.752,0.833,1.298,1.188
		c0.544,0.355,1.198,0.695,1.968,1.018c0.768,0.323,1.584,0.679,2.448,1.066l3.694,1.648c2.145,0.938,3.681,2.198,4.607,3.781
		c0.928,1.584,1.393,3.539,1.393,5.866c0,2.036-0.336,3.798-1.008,5.284c-0.673,1.487-1.602,2.715-2.785,3.685
		c-1.183,0.97-2.592,1.673-4.224,2.109s-3.394,0.654-5.28,0.654c-1.056,0-2.016-0.041-2.879-0.121
		c-0.865-0.081-1.705-0.186-2.521-0.315c-0.816-0.129-1.642-0.322-2.474-0.582c-0.832-0.258-1.729-0.564-2.688-0.921
		c0.127-0.679,0.247-1.301,0.358-1.866s0.217-1.147,0.312-1.745c0.096-0.598,0.184-1.236,0.264-1.915
		c0.08-0.679,0.152-1.471,0.217-2.376h1.97C169.277,63.328,169.589,64.086,170.053,64.765z"/>
	<path fill="#FFFFFF" d="M198.518,64.765c0.463,0.679,1.031,1.253,1.703,1.722c0.672,0.469,1.432,0.832,2.28,1.091
		c0.849,0.259,1.733,0.388,2.664,0.388c0.576,0,1.149-0.064,1.728-0.194c0.576-0.128,1.096-0.331,1.562-0.605
		c0.463-0.274,0.84-0.638,1.128-1.091c0.288-0.452,0.433-0.985,0.433-1.6c0-0.582-0.129-1.099-0.385-1.552
		c-0.257-0.452-0.703-0.904-1.344-1.357c-0.643-0.452-1.488-0.929-2.544-1.43c-1.058-0.501-2.386-1.091-3.984-1.77
		c-2.146-0.905-3.888-2.206-5.231-3.903c-1.344-1.696-2.016-3.772-2.016-6.229c0-1.939,0.336-3.619,1.008-5.042
		c0.672-1.422,1.584-2.602,2.735-3.539s2.503-1.64,4.056-2.108c1.553-0.469,3.209-0.703,4.969-0.703
		c1.729,0,3.439,0.193,5.138,0.582c1.694,0.388,3.358,0.889,4.992,1.502c-0.479,1.1-0.89,2.296-1.226,3.588
		c-0.336,1.293-0.553,2.505-0.646,3.636h-1.921c-0.257-1.454-0.921-2.682-1.991-3.685c-1.072-1.001-2.475-1.502-4.2-1.502
		c-0.513,0-1.063,0.064-1.655,0.193c-0.594,0.13-1.137,0.332-1.633,0.606c-0.496,0.274-0.904,0.63-1.224,1.066
		c-0.32,0.437-0.479,0.978-0.479,1.624c0,0.614,0.16,1.139,0.479,1.575c0.317,0.437,0.751,0.833,1.296,1.188
		c0.544,0.355,1.199,0.695,1.969,1.018c0.768,0.323,1.584,0.679,2.447,1.066l3.693,1.648c2.146,0.938,3.682,2.198,4.609,3.781
		c0.928,1.584,1.391,3.539,1.391,5.866c0,2.036-0.336,3.798-1.008,5.284c-0.672,1.487-1.601,2.715-2.783,3.685
		c-1.184,0.97-2.592,1.673-4.225,2.109c-1.632,0.436-3.393,0.654-5.279,0.654c-1.057,0-2.017-0.041-2.881-0.121
		c-0.863-0.081-1.703-0.186-2.52-0.315s-1.643-0.322-2.475-0.582c-0.832-0.258-1.728-0.564-2.688-0.921
		c0.127-0.679,0.247-1.301,0.359-1.866c0.111-0.565,0.217-1.147,0.312-1.745c0.095-0.598,0.185-1.236,0.265-1.915
		c0.08-0.679,0.151-1.471,0.217-2.376h1.969C197.741,63.328,198.053,64.086,198.518,64.765z"/>
</g>
<g>
	<g>
		<path fill="#FFFFFF" d="M40.777,110.329c-0.33-0.254-0.696-0.476-1.1-0.666c-0.403-0.188-0.851-0.345-1.342-0.466
			c-0.492-0.118-1.017-0.178-1.573-0.178c-0.91,0-1.756,0.133-2.541,0.399c-0.785,0.267-1.467,0.681-2.046,1.235
			c-0.58,0.556-1.034,1.26-1.364,2.109c-0.33,0.854-0.495,1.862-0.495,3.031c0,1.027,0.146,1.957,0.44,2.788
			c0.293,0.83,0.722,1.53,1.287,2.101c0.563,0.57,1.254,1.012,2.067,1.32c0.814,0.309,1.734,0.465,2.762,0.465
			c0.308,0,0.63-0.014,0.968-0.041c0.338-0.029,0.664-0.07,0.979-0.128c0.315-0.057,0.608-0.127,0.881-0.211
			c0.271-0.085,0.502-0.185,0.692-0.296c0.016-0.423,0.026-0.846,0.033-1.268c0.007-0.422,0.011-0.854,0.011-1.289
			c0-0.491-0.011-0.984-0.033-1.479c-0.021-0.492-0.048-0.964-0.076-1.414c0.366,0.069,0.719,0.104,1.056,0.104
			c0.161,0,0.322-0.006,0.484-0.02c0.16-0.017,0.314-0.045,0.462-0.087c-0.029,0.324-0.052,0.834-0.066,1.531
			c-0.014,0.696-0.021,1.616-0.021,2.756c0,0.282,0.003,0.567,0.011,0.854c0.007,0.289,0.011,0.574,0.011,0.854
			c-0.308,0.113-0.693,0.229-1.155,0.349c-0.462,0.121-0.954,0.221-1.474,0.297c-0.521,0.076-1.042,0.146-1.562,0.211
			c-0.52,0.063-0.993,0.096-1.419,0.096c-1.306,0-2.481-0.15-3.53-0.454c-1.048-0.302-1.939-0.771-2.673-1.403
			c-0.734-0.634-1.299-1.423-1.694-2.365c-0.396-0.942-0.594-2.033-0.594-3.272c0-1.196,0.206-2.265,0.615-3.2
			c0.411-0.936,0.99-1.728,1.738-2.375c0.748-0.646,1.654-1.141,2.717-1.479c1.063-0.34,2.24-0.508,3.531-0.508
			c0.748,0,1.412,0.039,1.991,0.115c0.579,0.078,1.092,0.182,1.54,0.309c0.447,0.127,0.839,0.261,1.177,0.4
			c0.338,0.141,0.638,0.273,0.902,0.4c-0.118,0.197-0.225,0.449-0.319,0.76c-0.095,0.312-0.158,0.6-0.187,0.866h-0.265
			C41.382,110.835,41.107,110.582,40.777,110.329z"/>
		<path fill="#FFFFFF" d="M46.058,111.247c-0.037-0.894-0.077-1.806-0.121-2.733c0.19,0.027,0.374,0.053,0.55,0.072
			c0.177,0.021,0.353,0.032,0.528,0.032c0.175,0,0.353-0.011,0.528-0.032s0.358-0.045,0.55-0.072
			c-0.044,0.928-0.085,1.84-0.121,2.733c-0.037,0.896-0.055,1.806-0.055,2.735c0,1.772,0.007,3.312,0.021,4.613
			c0.016,1.303,0.029,2.469,0.044,3.495c1.042,0,2.039-0.011,2.992-0.03c0.953-0.021,1.98-0.104,3.08-0.242
			c-0.074,0.252-0.11,0.464-0.11,0.633c0,0.154,0.037,0.346,0.11,0.57c-0.675-0.028-1.35-0.043-2.024-0.043c-0.674,0-1.35,0-2.023,0
			c-0.704,0-1.382,0-2.035,0c-0.653,0-1.331,0.015-2.035,0.043c0.044-0.873,0.084-1.762,0.121-2.662
			c0.036-0.899,0.055-1.815,0.055-2.744v-3.633C46.112,113.053,46.094,112.141,46.058,111.247z"/>
		<path fill="#FFFFFF" d="M56.485,112.598c0.403-0.936,0.969-1.728,1.694-2.375c0.725-0.646,1.595-1.141,2.607-1.479
			c1.012-0.338,2.118-0.508,3.321-0.508c1.218,0,2.332,0.17,3.345,0.508c1.012,0.339,1.881,0.831,2.606,1.479
			c0.727,0.647,1.291,1.439,1.694,2.375c0.402,0.938,0.604,2.004,0.604,3.2s-0.202,2.265-0.604,3.199
			c-0.403,0.937-0.968,1.729-1.694,2.376c-0.726,0.648-1.595,1.13-2.606,1.447c-1.013,0.314-2.127,0.475-3.345,0.475
			c-1.203,0-2.31-0.158-3.321-0.475c-1.013-0.317-1.882-0.799-2.607-1.447c-0.726-0.646-1.291-1.439-1.694-2.376
			c-0.402-0.937-0.604-2.003-0.604-3.199S56.082,113.535,56.485,112.598z M69.741,112.768c-0.309-0.853-0.737-1.557-1.287-2.111
			c-0.551-0.557-1.196-0.969-1.937-1.234c-0.741-0.27-1.544-0.4-2.409-0.4c-0.851,0-1.646,0.135-2.387,0.4
			c-0.741,0.27-1.386,0.68-1.936,1.234c-0.551,0.557-0.979,1.261-1.287,2.111c-0.309,0.854-0.462,1.861-0.462,3.03
			s0.153,2.179,0.462,3.03c0.308,0.854,0.736,1.557,1.287,2.111c0.55,0.558,1.194,0.969,1.936,1.234
			c0.74,0.27,1.536,0.401,2.387,0.401c0.865,0,1.668-0.136,2.409-0.401c0.74-0.268,1.386-0.679,1.937-1.234
			c0.55-0.557,0.979-1.26,1.287-2.111c0.308-0.852,0.462-1.861,0.462-3.03S70.048,113.62,69.741,112.768z"/>
		<path fill="#FFFFFF" d="M75.383,111.215c-0.037-0.9-0.077-1.803-0.121-2.703c0.381,0.028,0.771,0.053,1.166,0.073
			c0.396,0.021,0.785,0.032,1.166,0.032c0.381,0,0.77-0.018,1.166-0.053s0.784-0.055,1.166-0.055c0.63,0,1.225,0.047,1.782,0.139
			s1.049,0.254,1.474,0.484c0.425,0.23,0.763,0.547,1.012,0.939c0.249,0.395,0.374,0.887,0.374,1.479
			c0,1.042-0.341,1.858-1.022,2.45c-0.683,0.591-1.573,1.007-2.673,1.246v0.042c1.305,0.059,2.335,0.357,3.091,0.908
			c0.755,0.549,1.133,1.429,1.133,2.64c0,0.789-0.169,1.45-0.506,1.985c-0.338,0.533-0.778,0.969-1.32,1.299
			c-0.542,0.331-1.14,0.562-1.793,0.695c-0.652,0.136-1.302,0.201-1.947,0.201c-0.352,0-0.708-0.008-1.066-0.021
			c-0.36-0.017-0.715-0.021-1.067-0.021s-0.708,0-1.066,0c-0.359,0-0.716,0.014-1.067,0.043c0.044-0.9,0.084-1.799,0.121-2.692
			c0.036-0.896,0.055-1.806,0.055-2.735v-3.633C75.438,113.031,75.419,112.117,75.383,111.215z M79.959,114.848
			c0.506-0.099,0.957-0.265,1.353-0.496c0.396-0.23,0.715-0.541,0.957-0.93c0.242-0.388,0.363-0.877,0.363-1.468
			c0-0.577-0.11-1.038-0.33-1.384c-0.22-0.346-0.499-0.612-0.836-0.803c-0.337-0.189-0.719-0.316-1.145-0.381
			c-0.426-0.062-0.851-0.096-1.275-0.096c-0.382,0-0.704,0.012-0.968,0.031c-0.265,0.021-0.499,0.046-0.704,0.072
			c-0.029,0.678-0.06,1.347-0.088,2.006c-0.029,0.662-0.044,1.332-0.044,2.009v1.584h1.188
			C78.943,114.996,79.453,114.947,79.959,114.848z M77.286,120.064c0.028,0.705,0.059,1.414,0.088,2.133
			c0.278,0.029,0.607,0.054,0.989,0.074c0.382,0.02,0.771,0.031,1.166,0.031c0.47,0,0.921-0.076,1.354-0.232
			c0.432-0.153,0.81-0.383,1.133-0.688c0.323-0.303,0.579-0.676,0.771-1.117c0.189-0.443,0.285-0.947,0.285-1.512
			c0-0.604-0.113-1.104-0.341-1.488c-0.228-0.387-0.554-0.688-0.979-0.908c-0.426-0.217-0.936-0.369-1.529-0.453
			c-0.594-0.086-1.258-0.127-1.991-0.127h-0.989v2.154C77.242,118.648,77.257,119.361,77.286,120.064z"/>
		<path fill="#FFFFFF" d="M100.21,123.021c-0.206-0.028-0.399-0.043-0.583-0.043c-0.185,0-0.377,0-0.583,0s-0.399,0-0.583,0
			s-0.377,0.015-0.583,0.043c-0.104-0.324-0.242-0.715-0.418-1.172c-0.176-0.457-0.371-0.938-0.583-1.438
			c-0.212-0.499-0.43-1.007-0.649-1.521c-0.22-0.515-0.425-1.002-0.616-1.469c-0.47-0.014-0.945-0.023-1.43-0.029
			c-0.484-0.009-0.968-0.013-1.452-0.013c-0.455,0-0.901,0.004-1.342,0.013c-0.44,0.006-0.888,0.018-1.342,0.029
			c-0.47,1.1-0.896,2.145-1.276,3.139c-0.381,0.99-0.667,1.812-0.857,2.459c-0.25-0.027-0.521-0.041-0.814-0.041
			s-0.564,0.014-0.813,0.041c1.188-2.463,2.346-4.912,3.476-7.351c1.129-2.437,2.266-4.914,3.41-7.437h0.418
			c0.352,0.817,0.732,1.701,1.144,2.651s0.829,1.911,1.254,2.884c0.426,0.973,0.851,1.937,1.276,2.895
			c0.425,0.957,0.825,1.848,1.199,2.671s0.711,1.562,1.012,2.207C99.773,122.191,100.02,122.684,100.21,123.021z M90.464,116.453
			c0.381,0,0.777,0.008,1.188,0.021c0.411,0.012,0.807,0.021,1.188,0.021c0.41,0,0.821-0.004,1.231-0.011
			c0.41-0.008,0.821-0.02,1.232-0.032l-2.442-5.364L90.464,116.453z"/>
		<path fill="#FFFFFF" d="M102.685,111.247c-0.037-0.894-0.077-1.806-0.121-2.733c0.19,0.027,0.374,0.053,0.55,0.072
			c0.177,0.021,0.353,0.032,0.528,0.032c0.175,0,0.353-0.011,0.528-0.032c0.175-0.021,0.358-0.045,0.55-0.072
			c-0.044,0.928-0.085,1.84-0.121,2.733c-0.037,0.896-0.055,1.806-0.055,2.735c0,1.772,0.007,3.312,0.021,4.613
			c0.016,1.303,0.029,2.469,0.044,3.495c1.042,0,2.039-0.011,2.992-0.03c0.953-0.021,1.98-0.104,3.08-0.242
			c-0.074,0.252-0.11,0.464-0.11,0.633c0,0.154,0.037,0.346,0.11,0.57c-0.675-0.028-1.35-0.043-2.023-0.043
			c-0.676,0-1.351,0-2.024,0c-0.704,0-1.382,0-2.035,0c-0.653,0-1.331,0.015-2.035,0.043c0.044-0.873,0.084-1.762,0.121-2.662
			c0.036-0.899,0.055-1.815,0.055-2.744v-3.633C102.74,113.053,102.721,112.141,102.685,111.247z"/>
		<path fill="#FFFFFF" d="M119.845,121.046c0.198,0.261,0.44,0.496,0.726,0.708c0.286,0.211,0.619,0.385,1.001,0.518
			c0.382,0.135,0.807,0.201,1.276,0.201c0.484,0,0.92-0.082,1.31-0.244c0.388-0.16,0.718-0.379,0.989-0.652
			c0.272-0.273,0.48-0.6,0.627-0.973s0.221-0.771,0.221-1.192c0-0.646-0.173-1.161-0.518-1.542c-0.345-0.381-0.772-0.696-1.287-0.95
			c-0.514-0.253-1.066-0.483-1.661-0.696c-0.594-0.211-1.147-0.476-1.66-0.791c-0.515-0.316-0.942-0.723-1.287-1.216
			c-0.346-0.491-0.518-1.153-0.518-1.983c0-0.592,0.11-1.131,0.33-1.616c0.22-0.485,0.539-0.904,0.957-1.257
			c0.418-0.354,0.92-0.627,1.507-0.823c0.586-0.197,1.246-0.296,1.98-0.296c0.704,0,1.312,0.082,1.826,0.242
			c0.513,0.162,0.989,0.412,1.43,0.75c-0.132,0.24-0.242,0.494-0.33,0.761c-0.088,0.269-0.176,0.606-0.264,1.015h-0.265
			c-0.073-0.197-0.173-0.412-0.297-0.645c-0.124-0.233-0.293-0.447-0.506-0.646c-0.213-0.195-0.466-0.361-0.759-0.494
			c-0.293-0.136-0.646-0.201-1.056-0.201c-0.41,0-0.789,0.062-1.134,0.188c-0.345,0.127-0.646,0.308-0.901,0.539
			s-0.455,0.511-0.595,0.834c-0.14,0.323-0.209,0.676-0.209,1.058c0,0.66,0.173,1.182,0.518,1.562
			c0.344,0.38,0.772,0.698,1.287,0.961c0.514,0.261,1.066,0.493,1.661,0.694c0.594,0.205,1.146,0.455,1.66,0.75
			c0.514,0.297,0.942,0.678,1.287,1.143c0.345,0.465,0.518,1.084,0.518,1.857c0,0.647-0.121,1.262-0.363,1.838
			c-0.242,0.576-0.594,1.08-1.056,1.511s-1.026,0.761-1.694,0.993c-0.667,0.23-1.427,0.348-2.277,0.348
			c-0.909,0-1.646-0.115-2.211-0.348c-0.564-0.232-1.038-0.497-1.419-0.793c0.132-0.323,0.224-0.615,0.275-0.877
			c0.051-0.262,0.099-0.596,0.143-1.004h0.265C119.489,120.529,119.647,120.787,119.845,121.046z"/>
		<path fill="#FFFFFF" d="M133.881,116.042c-0.286-0.458-0.603-0.965-0.946-1.521c-0.345-0.558-0.708-1.142-1.089-1.754
			c-0.381-0.611-0.745-1.195-1.089-1.752c-0.345-0.558-0.657-1.058-0.936-1.5c-0.278-0.443-0.491-0.777-0.638-1.002
			c0.206,0.026,0.407,0.053,0.605,0.071c0.197,0.021,0.398,0.032,0.604,0.032s0.407-0.012,0.605-0.032
			c0.197-0.021,0.398-0.045,0.604-0.071c0.66,1.225,1.331,2.428,2.014,3.609c0.682,1.184,1.403,2.415,2.167,3.693
			c0.337-0.506,0.688-1.062,1.056-1.668c0.366-0.604,0.732-1.225,1.1-1.856c0.366-0.634,0.719-1.271,1.057-1.911
			c0.338-0.64,0.651-1.264,0.945-1.867c0.366,0.068,0.652,0.104,0.858,0.104c0.205,0,0.491-0.035,0.858-0.104
			c-0.704,1.025-1.336,1.955-1.893,2.785c-0.558,0.831-1.049,1.584-1.474,2.262c-0.425,0.676-0.799,1.283-1.122,1.826
			c-0.323,0.543-0.603,1.03-0.836,1.469c0,0.521,0.003,1.076,0.011,1.668c0.007,0.592,0.018,1.172,0.033,1.742
			c0.014,0.569,0.033,1.1,0.055,1.584s0.047,0.877,0.077,1.172c-0.337-0.027-0.697-0.041-1.078-0.041
			c-0.381,0-0.741,0.014-1.078,0.041c0.088-0.73,0.141-1.619,0.154-2.66c0.014-1.043,0.021-2.133,0.021-3.273
			C134.383,116.848,134.167,116.499,133.881,116.042z"/>
		<path fill="#FFFFFF" d="M144.287,121.046c0.197,0.261,0.439,0.496,0.726,0.708c0.286,0.211,0.619,0.385,1.001,0.518
			c0.381,0.135,0.806,0.201,1.276,0.201c0.483,0,0.92-0.082,1.309-0.244c0.388-0.16,0.718-0.379,0.99-0.652
			c0.271-0.273,0.479-0.6,0.627-0.973c0.146-0.373,0.22-0.771,0.22-1.192c0-0.646-0.172-1.161-0.517-1.542
			c-0.345-0.381-0.773-0.696-1.287-0.95c-0.514-0.253-1.067-0.483-1.661-0.696c-0.594-0.211-1.147-0.476-1.661-0.791
			c-0.514-0.316-0.941-0.723-1.287-1.216c-0.345-0.491-0.517-1.153-0.517-1.983c0-0.592,0.11-1.131,0.33-1.616
			c0.22-0.485,0.539-0.904,0.957-1.257c0.418-0.354,0.92-0.627,1.507-0.823c0.586-0.197,1.246-0.296,1.979-0.296
			c0.704,0,1.312,0.082,1.826,0.242c0.514,0.162,0.99,0.412,1.431,0.75c-0.133,0.24-0.242,0.494-0.33,0.761
			c-0.088,0.269-0.177,0.606-0.265,1.015h-0.264c-0.074-0.197-0.173-0.412-0.297-0.645c-0.124-0.233-0.293-0.447-0.506-0.646
			c-0.213-0.195-0.466-0.361-0.759-0.494c-0.293-0.136-0.646-0.201-1.057-0.201s-0.789,0.062-1.133,0.188
			c-0.345,0.127-0.646,0.308-0.902,0.539s-0.455,0.511-0.594,0.834c-0.14,0.323-0.209,0.676-0.209,1.058
			c0,0.66,0.172,1.182,0.518,1.562c0.344,0.38,0.772,0.698,1.286,0.961c0.515,0.261,1.067,0.493,1.661,0.694
			c0.595,0.205,1.147,0.455,1.661,0.75c0.513,0.297,0.942,0.678,1.287,1.143c0.344,0.465,0.517,1.084,0.517,1.857
			c0,0.647-0.12,1.262-0.362,1.838s-0.595,1.08-1.057,1.511s-1.025,0.761-1.693,0.993c-0.667,0.23-1.428,0.348-2.277,0.348
			c-0.91,0-1.646-0.115-2.211-0.348c-0.565-0.232-1.038-0.497-1.419-0.793c0.132-0.323,0.223-0.615,0.275-0.877
			c0.051-0.262,0.099-0.596,0.143-1.004h0.264C143.931,120.529,144.089,120.787,144.287,121.046z"/>
		<path fill="#FFFFFF" d="M158.29,109.609c-0.381,0-0.781,0.004-1.199,0.012c-0.418,0.007-0.836,0.021-1.254,0.042
			s-0.821,0.046-1.21,0.073c-0.39,0.029-0.737,0.062-1.045,0.104c0.072-0.253,0.109-0.479,0.109-0.676
			c0-0.153-0.037-0.373-0.109-0.653c0.968,0.027,1.914,0.053,2.838,0.072s1.87,0.032,2.838,0.032c0.968,0,1.914-0.013,2.838-0.032
			c0.924-0.02,1.87-0.045,2.837-0.072c-0.074,0.28-0.109,0.508-0.109,0.676c0,0.184,0.035,0.4,0.109,0.653
			c-0.308-0.042-0.656-0.075-1.044-0.104c-0.389-0.027-0.792-0.053-1.21-0.073c-0.418-0.021-0.836-0.035-1.254-0.042
			c-0.418-0.008-0.818-0.012-1.199-0.012c-0.044,1.451-0.065,2.908-0.065,4.373v3.633c0,0.929,0.018,1.845,0.055,2.744
			c0.036,0.9,0.077,1.789,0.121,2.662c-0.337-0.028-0.697-0.043-1.078-0.043c-0.382,0-0.741,0.015-1.078,0.043
			c0.044-0.873,0.084-1.762,0.121-2.662c0.036-0.899,0.055-1.815,0.055-2.744v-3.633
			C158.356,112.518,158.334,111.061,158.29,109.609z"/>
		<path fill="#FFFFFF" d="M167.475,111.215c-0.037-0.9-0.076-1.803-0.121-2.703c0.66,0.028,1.316,0.053,1.969,0.073
			c0.654,0.021,1.311,0.032,1.971,0.032s1.312-0.012,1.958-0.032s1.298-0.045,1.958-0.073c-0.044,0.211-0.066,0.422-0.066,0.633
			c0,0.213,0.022,0.424,0.066,0.635c-0.471-0.027-0.898-0.057-1.287-0.084c-0.391-0.027-0.799-0.057-1.232-0.086
			c-0.433-0.026-0.904-0.053-1.418-0.072c-0.515-0.02-1.129-0.031-1.849-0.031c-0.017,0.451-0.032,0.881-0.055,1.288
			c-0.022,0.409-0.033,0.873-0.033,1.396c0,0.549,0.003,1.084,0.011,1.604c0.008,0.521,0.012,0.916,0.012,1.184
			c0.646,0,1.226-0.008,1.738-0.021c0.512-0.016,0.981-0.032,1.407-0.055c0.425-0.021,0.815-0.043,1.177-0.062
			c0.359-0.021,0.7-0.046,1.023-0.073c-0.044,0.211-0.066,0.43-0.066,0.654c0,0.211,0.022,0.422,0.066,0.633
			c-0.383-0.041-0.825-0.076-1.331-0.104c-0.507-0.027-1.013-0.045-1.519-0.053s-0.982-0.016-1.431-0.021
			c-0.446-0.008-0.803-0.012-1.067-0.012c0,0.128-0.004,0.265-0.01,0.412c-0.009,0.146-0.012,0.334-0.012,0.561v0.823v1.269
			c0,0.801,0.003,1.463,0.012,1.984c0.006,0.521,0.018,0.915,0.032,1.184c0.483,0,0.997,0,1.54,0c0.557,0,1.104-0.012,1.639-0.033
			c0.535-0.021,1.041-0.049,1.52-0.084c0.477-0.035,0.891-0.088,1.242-0.158c-0.028,0.101-0.049,0.207-0.055,0.328
			c-0.009,0.119-0.012,0.229-0.012,0.326c0,0.228,0.021,0.408,0.064,0.549c-0.658-0.026-1.314-0.041-1.969-0.041s-1.315,0-1.99,0
			c-0.676,0-1.342,0-2.002,0s-1.328,0.015-2.002,0.041c0.043-0.898,0.084-1.797,0.121-2.69c0.035-0.896,0.055-1.808,0.055-2.735
			v-3.633C167.529,113.031,167.512,112.117,167.475,111.215z"/>
		<path fill="#FFFFFF" d="M183.007,114.066c1.034,1.888,2.116,3.822,3.245,5.809c0.146-0.268,0.357-0.65,0.639-1.15
			c0.277-0.5,0.602-1.074,0.967-1.722c0.367-0.647,0.761-1.349,1.179-2.103c0.418-0.752,0.843-1.519,1.274-2.291
			c0.435-0.774,0.861-1.534,1.287-2.28c0.426-0.747,0.821-1.442,1.188-2.093h0.284c0.162,1.354,0.312,2.658,0.451,3.918
			c0.14,1.262,0.283,2.5,0.431,3.719c0.146,1.218,0.293,2.422,0.438,3.611c0.146,1.188,0.31,2.369,0.484,3.537
			c-0.176-0.028-0.35-0.043-0.518-0.043s-0.342,0-0.518,0s-0.348,0-0.518,0s-0.342,0.015-0.518,0.043
			c-0.162-1.873-0.322-3.688-0.482-5.449c-0.162-1.76-0.36-3.555-0.596-5.385h-0.043c-1.013,1.771-2.007,3.537-2.98,5.289
			c-0.977,1.754-1.903,3.588-2.783,5.502h-0.197c-0.881-1.773-1.802-3.553-2.762-5.332c-0.96-1.781-1.925-3.603-2.895-5.459h-0.043
			c-0.104,0.873-0.217,1.817-0.342,2.84c-0.125,1.021-0.238,2.027-0.341,3.021s-0.19,1.931-0.264,2.81
			c-0.074,0.881-0.11,1.604-0.11,2.164c-0.234-0.026-0.492-0.041-0.77-0.041c-0.279,0-0.536,0.015-0.771,0.041
			c0.189-1.141,0.389-2.344,0.594-3.609c0.205-1.27,0.403-2.541,0.596-3.822c0.188-1.279,0.365-2.545,0.527-3.791
			c0.16-1.246,0.299-2.433,0.418-3.561h0.373C180.95,110.236,181.973,112.18,183.007,114.066z"/>
		<path fill="#FFFFFF" d="M198.077,121.046c0.196,0.261,0.438,0.496,0.726,0.708c0.286,0.211,0.619,0.385,1.002,0.518
			c0.381,0.135,0.805,0.201,1.275,0.201c0.482,0,0.92-0.082,1.309-0.244c0.389-0.16,0.719-0.379,0.99-0.652s0.479-0.6,0.627-0.973
			c0.146-0.373,0.221-0.771,0.221-1.192c0-0.646-0.172-1.161-0.518-1.542s-0.773-0.696-1.287-0.95
			c-0.514-0.253-1.066-0.483-1.66-0.696c-0.595-0.211-1.148-0.476-1.662-0.791c-0.514-0.316-0.94-0.723-1.287-1.216
			c-0.344-0.491-0.517-1.153-0.517-1.983c0-0.592,0.11-1.131,0.33-1.616s0.539-0.904,0.957-1.257
			c0.418-0.354,0.92-0.627,1.507-0.823c0.586-0.197,1.246-0.296,1.979-0.296c0.705,0,1.312,0.082,1.826,0.242
			c0.515,0.162,0.99,0.412,1.432,0.75c-0.133,0.24-0.242,0.494-0.33,0.761c-0.088,0.269-0.178,0.606-0.266,1.015h-0.264
			c-0.074-0.197-0.173-0.412-0.297-0.645c-0.124-0.233-0.293-0.447-0.506-0.646c-0.213-0.195-0.466-0.361-0.76-0.494
			c-0.293-0.136-0.646-0.201-1.057-0.201s-0.789,0.062-1.133,0.188c-0.345,0.127-0.646,0.308-0.902,0.539s-0.455,0.511-0.594,0.834
			c-0.14,0.323-0.209,0.676-0.209,1.058c0,0.66,0.172,1.182,0.518,1.562c0.345,0.379,0.773,0.698,1.287,0.961
			c0.515,0.261,1.066,0.493,1.66,0.694c0.594,0.205,1.147,0.455,1.662,0.75c0.512,0.297,0.941,0.678,1.286,1.143
			s0.517,1.084,0.517,1.857c0,0.647-0.121,1.262-0.361,1.838c-0.242,0.576-0.596,1.08-1.057,1.511
			c-0.463,0.431-1.025,0.761-1.693,0.993c-0.667,0.23-1.428,0.348-2.277,0.348c-0.91,0-1.646-0.115-2.211-0.348
			c-0.564-0.232-1.037-0.497-1.419-0.793c0.132-0.323,0.224-0.615,0.274-0.877c0.052-0.262,0.1-0.596,0.144-1.004h0.265
			C197.721,120.529,197.878,120.787,198.077,121.046z"/>
		<path fill="#FFFFFF" d="M215.193,121.046c0.197,0.261,0.439,0.496,0.727,0.708c0.286,0.211,0.619,0.385,1.001,0.518
			c0.382,0.135,0.806,0.201,1.274,0.201c0.484,0,0.922-0.082,1.311-0.244c0.389-0.16,0.719-0.379,0.99-0.652s0.479-0.6,0.627-0.973
			c0.146-0.373,0.22-0.771,0.22-1.192c0-0.646-0.172-1.161-0.517-1.542c-0.346-0.381-0.773-0.696-1.287-0.95
			c-0.516-0.253-1.066-0.483-1.661-0.696c-0.594-0.211-1.147-0.476-1.661-0.791c-0.514-0.316-0.941-0.723-1.287-1.216
			c-0.345-0.491-0.517-1.153-0.517-1.983c0-0.592,0.108-1.131,0.33-1.616c0.22-0.485,0.539-0.904,0.957-1.257
			c0.418-0.354,0.92-0.627,1.507-0.823c0.586-0.197,1.246-0.296,1.979-0.296c0.705,0,1.312,0.082,1.826,0.242
			c0.514,0.162,0.99,0.412,1.43,0.75c-0.131,0.24-0.24,0.494-0.33,0.761c-0.088,0.269-0.176,0.606-0.264,1.015h-0.264
			c-0.074-0.197-0.173-0.412-0.297-0.645c-0.124-0.233-0.293-0.447-0.508-0.646c-0.213-0.195-0.465-0.361-0.758-0.494
			c-0.293-0.136-0.646-0.201-1.057-0.201s-0.789,0.062-1.133,0.188c-0.346,0.127-0.646,0.308-0.902,0.539s-0.455,0.511-0.594,0.834
			c-0.141,0.323-0.209,0.676-0.209,1.058c0,0.66,0.172,1.182,0.518,1.562c0.344,0.38,0.772,0.698,1.287,0.961
			c0.514,0.261,1.066,0.493,1.66,0.694c0.594,0.205,1.146,0.455,1.661,0.75c0.513,0.297,0.94,0.678,1.287,1.143
			c0.344,0.465,0.517,1.084,0.517,1.857c0,0.647-0.121,1.262-0.363,1.838c-0.24,0.576-0.594,1.08-1.055,1.511
			c-0.463,0.431-1.027,0.761-1.695,0.993c-0.666,0.23-1.426,0.348-2.275,0.348c-0.91,0-1.646-0.115-2.211-0.348
			s-1.038-0.497-1.419-0.793c0.132-0.323,0.224-0.615,0.274-0.877s0.1-0.596,0.144-1.004h0.265
			C214.837,120.529,214.995,120.787,215.193,121.046z"/>
		<path fill="#FFFFFF" d="M236.951,122.525c-0.286,0.134-0.631,0.254-1.034,0.357c-0.403,0.105-0.854,0.2-1.354,0.285
			c-0.498,0.084-1.02,0.126-1.562,0.126c-1.159,0-2.229-0.157-3.212-0.476c-0.982-0.316-1.83-0.799-2.541-1.446
			c-0.712-0.646-1.27-1.438-1.672-2.376c-0.403-0.938-0.605-2.003-0.605-3.199c0-1.195,0.202-2.264,0.605-3.199
			c0.402-0.937,0.968-1.729,1.693-2.375c0.727-0.647,1.596-1.142,2.606-1.479c1.013-0.339,2.126-0.507,3.345-0.507
			c0.967,0,1.852,0.096,2.65,0.285c0.798,0.188,1.507,0.42,2.123,0.687c-0.118,0.196-0.213,0.465-0.286,0.804
			c-0.074,0.338-0.132,0.619-0.176,0.844l-0.134,0.043c-0.146-0.17-0.352-0.357-0.614-0.568c-0.265-0.212-0.572-0.416-0.925-0.613
			c-0.353-0.195-0.748-0.361-1.188-0.494c-0.44-0.136-0.924-0.201-1.452-0.201c-0.865,0-1.668,0.135-2.408,0.4
			c-0.742,0.27-1.387,0.68-1.937,1.235s-0.979,1.26-1.287,2.11c-0.308,0.854-0.462,1.861-0.462,3.03s0.154,2.179,0.462,3.03
			c0.308,0.854,0.737,1.557,1.287,2.111c0.55,0.558,1.194,0.969,1.937,1.234c0.739,0.27,1.543,0.401,2.408,0.401
			c0.528,0,1.016-0.062,1.463-0.19c0.447-0.125,0.858-0.275,1.232-0.453c0.374-0.177,0.711-0.365,1.012-0.568
			c0.301-0.204,0.555-0.385,0.76-0.539l0.088,0.085l-0.197,1.245C237.445,122.268,237.236,122.391,236.951,122.525z"/>
		<path fill="#FFFFFF" d="M240.822,111.247c-0.035-0.894-0.075-1.806-0.119-2.733c0.189,0.027,0.374,0.053,0.55,0.072
			c0.177,0.021,0.353,0.032,0.526,0.032c0.178,0,0.354-0.011,0.529-0.032c0.174-0.021,0.358-0.045,0.549-0.072
			c-0.043,0.928-0.084,1.84-0.121,2.733c-0.035,0.896-0.055,1.806-0.055,2.735v3.633c0,0.929,0.02,1.845,0.055,2.744
			c0.037,0.9,0.078,1.789,0.121,2.662c-0.338-0.028-0.695-0.043-1.078-0.043c-0.381,0-0.739,0.015-1.076,0.043
			c0.044-0.873,0.084-1.762,0.119-2.662c0.037-0.899,0.057-1.815,0.057-2.744v-3.633
			C240.877,113.053,240.859,112.141,240.822,111.247z"/>
		<path fill="#FFFFFF" d="M246.938,111.215c-0.037-0.9-0.076-1.803-0.121-2.703c0.66,0.028,1.316,0.053,1.971,0.073
			c0.65,0.021,1.309,0.032,1.969,0.032s1.312-0.012,1.958-0.032s1.298-0.045,1.958-0.073c-0.044,0.211-0.066,0.422-0.066,0.633
			c0,0.213,0.022,0.424,0.066,0.635c-0.47-0.027-0.898-0.057-1.287-0.084s-0.799-0.057-1.232-0.086
			c-0.432-0.026-0.904-0.053-1.418-0.072s-1.129-0.031-1.849-0.031c-0.015,0.451-0.032,0.881-0.055,1.288
			c-0.022,0.409-0.033,0.873-0.033,1.396c0,0.549,0.003,1.084,0.011,1.604c0.008,0.521,0.012,0.916,0.012,1.184
			c0.646,0,1.226-0.008,1.738-0.021c0.512-0.016,0.981-0.032,1.407-0.055c0.425-0.021,0.815-0.043,1.177-0.062
			c0.359-0.021,0.7-0.046,1.023-0.073c-0.044,0.211-0.066,0.43-0.066,0.654c0,0.211,0.022,0.422,0.066,0.633
			c-0.382-0.041-0.825-0.076-1.331-0.104s-1.013-0.045-1.519-0.053s-0.982-0.016-1.43-0.021c-0.447-0.008-0.804-0.012-1.068-0.012
			c0,0.128-0.004,0.265-0.01,0.412c-0.009,0.146-0.012,0.334-0.012,0.561v0.823v1.269c0,0.801,0.003,1.463,0.012,1.984
			c0.006,0.521,0.019,0.915,0.032,1.184c0.484,0,0.997,0,1.54,0c0.557,0,1.104-0.012,1.639-0.033
			c0.535-0.021,1.041-0.049,1.52-0.084c0.477-0.035,0.891-0.088,1.242-0.158c-0.028,0.101-0.049,0.207-0.055,0.328
			c-0.008,0.119-0.012,0.229-0.012,0.326c0,0.228,0.021,0.408,0.064,0.549c-0.658-0.026-1.314-0.041-1.969-0.041
			c-0.651,0-1.315,0-1.99,0c-0.676,0-1.342,0-2.002,0c-0.659,0-1.327,0.015-2.002,0.041c0.043-0.898,0.084-1.797,0.121-2.69
			c0.035-0.896,0.056-1.808,0.056-2.735v-3.633C246.993,113.031,246.975,112.117,246.938,111.215z"/>
		<path fill="#FFFFFF" d="M264.988,117.541c-1.905-1.964-3.811-3.918-5.719-5.859c-0.016,0.395-0.031,0.922-0.045,1.584
			c-0.015,0.662-0.021,1.562-0.021,2.703c0,0.295,0.003,0.661,0.011,1.098c0.008,0.438,0.016,0.896,0.021,1.373
			c0.008,0.479,0.019,0.965,0.033,1.457c0.014,0.492,0.028,0.951,0.043,1.373c0.016,0.422,0.029,0.791,0.045,1.108
			c0.016,0.315,0.029,0.531,0.043,0.644c-0.233-0.026-0.49-0.041-0.77-0.041c-0.293,0-0.564,0.015-0.814,0.041
			c0.029-0.141,0.062-0.399,0.101-0.779c0.036-0.381,0.067-0.834,0.099-1.362c0.029-0.526,0.062-1.103,0.1-1.721
			c0.037-0.62,0.066-1.239,0.089-1.859c0.021-0.618,0.04-1.225,0.055-1.815c0.015-0.59,0.021-1.118,0.021-1.584
			c0-1.353-0.004-2.514-0.01-3.483c-0.008-0.972-0.025-1.696-0.056-2.176h0.353c0.896,0.93,1.853,1.926,2.871,2.989
			c1.02,1.062,2.031,2.109,3.035,3.146c1.006,1.036,1.959,2.015,2.86,2.937s1.688,1.707,2.364,2.354v-2.873
			c0-1.479-0.012-2.918-0.032-4.317c-0.022-1.4-0.069-2.723-0.144-3.961c0.293,0.07,0.541,0.105,0.748,0.105
			c0.176,0,0.41-0.035,0.703-0.105c-0.029,0.312-0.062,0.774-0.099,1.396c-0.037,0.618-0.074,1.28-0.11,1.983
			c-0.035,0.705-0.068,1.396-0.099,2.069c-0.03,0.677-0.044,1.22-0.044,1.627c0,0.353,0,0.774,0,1.267
			c0,0.479,0.003,0.979,0.011,1.5c0.007,0.521,0.015,1.045,0.021,1.574c0.009,0.527,0.017,1.021,0.022,1.479
			c0.007,0.457,0.011,0.855,0.011,1.193c0,0.31,0,0.541,0,0.694h-0.308C268.691,121.423,266.896,119.504,264.988,117.541z"/>
		<path fill="#FFFFFF" d="M285.855,122.525c-0.285,0.134-0.629,0.254-1.033,0.357c-0.403,0.105-0.854,0.2-1.354,0.285
			c-0.498,0.084-1.02,0.126-1.562,0.126c-1.157,0-2.229-0.157-3.211-0.476c-0.982-0.316-1.83-0.799-2.541-1.446
			c-0.713-0.646-1.27-1.438-1.672-2.376s-0.604-2.003-0.604-3.199c0-1.195,0.202-2.264,0.604-3.199
			c0.402-0.937,0.969-1.729,1.693-2.375c0.725-0.647,1.596-1.142,2.607-1.479c1.012-0.339,2.126-0.507,3.344-0.507
			c0.969,0,1.852,0.096,2.65,0.285c0.8,0.188,1.508,0.42,2.123,0.687c-0.119,0.196-0.213,0.465-0.287,0.804
			c-0.072,0.338-0.131,0.619-0.176,0.844l-0.131,0.043c-0.146-0.17-0.353-0.357-0.617-0.568c-0.264-0.212-0.57-0.416-0.924-0.613
			c-0.352-0.195-0.748-0.361-1.188-0.494c-0.439-0.136-0.926-0.201-1.452-0.201c-0.864,0-1.668,0.135-2.409,0.4
			c-0.74,0.27-1.386,0.68-1.938,1.235c-0.549,0.556-0.979,1.26-1.285,2.11c-0.309,0.854-0.463,1.861-0.463,3.03
			s0.154,2.179,0.463,3.03c0.308,0.854,0.736,1.557,1.285,2.111c0.552,0.558,1.195,0.969,1.938,1.234
			c0.74,0.27,1.543,0.401,2.409,0.401c0.526,0,1.017-0.062,1.463-0.19c0.447-0.125,0.856-0.275,1.231-0.453
			c0.373-0.177,0.711-0.365,1.013-0.568c0.301-0.204,0.554-0.385,0.759-0.539l0.088,0.085l-0.197,1.245
			C286.352,122.268,286.143,122.391,285.855,122.525z"/>
		<path fill="#FFFFFF" d="M289.729,111.215c-0.037-0.9-0.076-1.803-0.121-2.703c0.66,0.028,1.316,0.053,1.971,0.073
			c0.65,0.021,1.309,0.032,1.969,0.032s1.312-0.012,1.958-0.032s1.298-0.045,1.958-0.073c-0.044,0.211-0.066,0.422-0.066,0.633
			c0,0.213,0.022,0.424,0.066,0.635c-0.47-0.027-0.898-0.057-1.287-0.084s-0.799-0.057-1.232-0.086
			c-0.432-0.026-0.904-0.053-1.418-0.072s-1.129-0.031-1.848-0.031c-0.016,0.451-0.033,0.881-0.056,1.288
			c-0.022,0.409-0.033,0.873-0.033,1.396c0,0.549,0.003,1.084,0.011,1.604c0.008,0.521,0.012,0.916,0.012,1.184
			c0.646,0,1.226-0.008,1.738-0.021c0.512-0.016,0.981-0.032,1.407-0.055c0.425-0.021,0.816-0.043,1.177-0.062
			c0.359-0.021,0.701-0.046,1.023-0.073c-0.044,0.211-0.066,0.43-0.066,0.654c0,0.211,0.022,0.422,0.066,0.633
			c-0.382-0.041-0.825-0.076-1.331-0.104s-1.013-0.045-1.519-0.053s-0.982-0.016-1.43-0.021c-0.447-0.008-0.804-0.012-1.068-0.012
			c0,0.128-0.004,0.265-0.01,0.412c-0.008,0.146-0.012,0.334-0.012,0.561v0.823v1.269c0,0.801,0.004,1.463,0.012,1.984
			c0.006,0.521,0.019,0.915,0.032,1.184c0.484,0,0.997,0,1.54,0c0.557,0,1.104-0.012,1.639-0.033
			c0.535-0.021,1.041-0.049,1.52-0.084c0.477-0.035,0.891-0.088,1.243-0.158c-0.029,0.101-0.05,0.207-0.056,0.328
			c-0.008,0.119-0.012,0.229-0.012,0.326c0,0.228,0.022,0.408,0.066,0.549c-0.66-0.026-1.316-0.041-1.971-0.041
			c-0.651,0-1.315,0-1.989,0c-0.677,0-1.343,0-2.003,0c-0.659,0-1.327,0.015-2.002,0.041c0.043-0.898,0.084-1.797,0.121-2.69
			c0.035-0.896,0.056-1.808,0.056-2.735v-3.633C289.783,113.031,289.766,112.117,289.729,111.215z"/>
	</g>
</g>
<line fill="none" stroke="#FFFFFF" stroke-linecap="round" stroke-miterlimit="10" x1="10.69" y1="79.786" x2="313.734" y2="79.786"/>
<line fill="none" stroke="#FFFFFF" stroke-linecap="round" stroke-miterlimit="10" x1="75.733" y1="32.672" x2="75.733" y2="10.933"/>
<line fill="none" stroke="#FFFFFF" stroke-linecap="round" stroke-miterlimit="10" x1="75.733" y1="130.458" x2="75.733" y2="158.969"/>
<g>
	<path fill="#ED9E21" d="M36.08,100.089c-0.062,0.216-0.102,0.429-0.12,0.638c-0.812,0.41-1.83,0.614-3.062,0.614
		c-0.869,0-1.646-0.122-2.332-0.366c-0.686-0.246-1.266-0.591-1.739-1.035c-0.476-0.443-0.839-0.974-1.087-1.582
		c-0.25-0.609-0.375-1.271-0.375-1.979c0-1.04,0.161-1.922,0.486-2.646c0.324-0.727,0.76-1.314,1.306-1.771
		c0.545-0.456,1.178-0.788,1.896-0.998c0.718-0.21,1.475-0.312,2.266-0.312c0.261,0,0.534,0.02,0.824,0.06s0.57,0.093,0.84,0.157
		c0.271,0.064,0.527,0.143,0.773,0.232c0.244,0.09,0.452,0.186,0.622,0.283c-0.102,0.25-0.178,0.504-0.232,0.76
		c-0.056,0.254-0.093,0.512-0.111,0.771h-0.21c-0.382-0.479-0.771-0.822-1.171-1.026c-0.4-0.205-0.869-0.309-1.409-0.309
		c-0.4,0-0.804,0.09-1.208,0.271c-0.404,0.18-0.772,0.455-1.104,0.823c-0.33,0.37-0.598,0.845-0.802,1.418
		c-0.205,0.575-0.308,1.265-0.308,2.062c0,0.771,0.104,1.429,0.313,1.974s0.482,0.989,0.817,1.335s0.715,0.6,1.141,0.757
		c0.425,0.16,0.854,0.24,1.282,0.24c0.24,0,0.484-0.026,0.734-0.082c0.249-0.056,0.494-0.13,0.734-0.228
		c0.24-0.094,0.468-0.211,0.683-0.353c0.216-0.14,0.402-0.295,0.562-0.465l0.195,0.12C36.209,99.662,36.139,99.875,36.08,100.089z"
		/>
	<path fill="#ED9E21" d="M39.589,98.688c0.08,0.351,0.202,0.651,0.367,0.906c0.165,0.256,0.375,0.455,0.63,0.6
		c0.256,0.146,0.553,0.22,0.893,0.22c0.69,0,1.307-0.226,1.847-0.677l0.18,0.137l-0.33,0.84c-0.25,0.189-0.55,0.344-0.9,0.458
		s-0.81,0.172-1.38,0.172c-0.489,0-0.955-0.065-1.395-0.2c-0.44-0.137-0.828-0.357-1.163-0.668
		c-0.335-0.312-0.601-0.703-0.795-1.179s-0.292-1.043-0.292-1.703c0-0.647,0.087-1.215,0.263-1.692
		c0.175-0.48,0.417-0.881,0.729-1.2c0.31-0.32,0.677-0.56,1.103-0.72c0.425-0.16,0.887-0.24,1.387-0.24
		c0.99,0,1.748,0.289,2.272,0.869s0.788,1.399,0.788,2.461v0.312c0,0.092-0.005,0.15-0.017,0.182H39.47
		C39.469,97.961,39.509,98.336,39.589,98.688z M41.501,95.086c-0.165-0.449-0.442-0.675-0.832-0.675
		c-0.22,0-0.405,0.075-0.556,0.226c-0.149,0.149-0.271,0.342-0.359,0.577s-0.157,0.5-0.202,0.795
		c-0.045,0.296-0.073,0.589-0.083,0.878h2.311C41.759,96.137,41.667,95.537,41.501,95.086z"/>
	<path fill="#ED9E21" d="M47.089,95.057c0.28-0.42,0.606-0.744,0.981-0.976c0.375-0.229,0.804-0.345,1.283-0.345
		c0.75,0,1.327,0.218,1.732,0.652c0.404,0.434,0.606,1.137,0.606,2.105c0,0.51-0.011,0.96-0.029,1.352
		c-0.021,0.391-0.03,0.778-0.03,1.17c0,0.318,0.008,0.668,0.021,1.043c0.017,0.375,0.032,0.735,0.054,1.088
		c-0.13-0.021-0.295-0.03-0.495-0.03c-0.2,0-0.41,0-0.63,0c-0.221,0-0.431,0-0.63,0c-0.2,0-0.365,0.01-0.495,0.03
		c0.069-0.521,0.115-1.133,0.135-1.838c0.021-0.705,0.03-1.515,0.03-2.425c0-0.63-0.107-1.092-0.322-1.387
		c-0.216-0.295-0.518-0.44-0.907-0.44c-0.45,0-0.78,0.192-0.99,0.584c-0.21,0.391-0.314,0.93-0.314,1.618v0.603
		c0,0.609,0.008,1.185,0.021,1.725c0.017,0.54,0.049,1.061,0.099,1.561c-0.13-0.021-0.292-0.028-0.487-0.028
		c-0.195,0-0.407,0-0.638,0s-0.44,0-0.63,0s-0.355,0.01-0.495,0.028c0.05-0.5,0.083-1.021,0.098-1.561
		c0.015-0.54,0.022-1.113,0.022-1.725V97.26c0-0.609-0.009-1.182-0.022-1.717c-0.013-0.535-0.048-1.072-0.098-1.611
		c0.18,0.021,0.356,0.037,0.532,0.051c0.175,0.018,0.353,0.022,0.532,0.022c0.181,0,0.357-0.007,0.532-0.022
		c0.175-0.014,0.362-0.03,0.562-0.051l-0.062,1.125H47.089L47.089,95.057z"/>
	<path fill="#ED9E21" d="M57.11,94.412c0,0.13,0.016,0.255,0.045,0.375l-1.319-0.03c-0.021,0.229-0.037,0.495-0.053,0.796
		c-0.016,0.301-0.024,0.604-0.029,0.914c-0.006,0.311-0.011,0.61-0.017,0.9c-0.005,0.29-0.007,0.535-0.007,0.734
		c0,0.521,0.013,0.938,0.037,1.26c0.024,0.32,0.067,0.564,0.128,0.736c0.061,0.17,0.146,0.282,0.255,0.344
		c0.109,0.061,0.249,0.091,0.42,0.091c0.189,0,0.33-0.013,0.421-0.037c0.09-0.024,0.18-0.062,0.27-0.113v0.615
		c-0.2,0.09-0.45,0.17-0.75,0.239c-0.3,0.07-0.595,0.104-0.885,0.104c-1.271,0-1.905-0.76-1.905-2.277
		c0-0.291,0.005-0.617,0.016-0.982c0.011-0.365,0.022-0.74,0.037-1.125c0.016-0.385,0.027-0.766,0.037-1.141
		c0.011-0.375,0.017-0.724,0.017-1.043l-1.051,0.016c0.029-0.12,0.045-0.245,0.045-0.375c0-0.12-0.016-0.255-0.045-0.405
		l1.051,0.046c0-0.311-0.006-0.601-0.017-0.869c-0.01-0.271-0.023-0.597-0.045-0.977c0.352-0.141,0.695-0.287,1.035-0.441
		c0.34-0.156,0.68-0.316,1.021-0.488l0.149,0.104c-0.02,0.16-0.037,0.349-0.052,0.562c-0.017,0.218-0.03,0.44-0.046,0.678
		c-0.016,0.232-0.024,0.475-0.029,0.72c-0.006,0.245-0.008,0.479-0.008,0.697l1.319-0.03C57.125,94.156,57.11,94.292,57.11,94.412z"
		/>
	<path fill="#ED9E21" d="M60.259,95.792c0.26-0.688,0.574-1.196,0.944-1.522c0.369-0.324,0.811-0.485,1.319-0.485
		c0.05,0,0.093,0.003,0.127,0.008c0.035,0.005,0.073,0.007,0.113,0.007c-0.03,0.15-0.053,0.312-0.067,0.479
		c-0.016,0.172-0.021,0.371-0.021,0.602v0.479c0,0.08,0,0.166,0,0.256c0,0.091,0.005,0.176,0.015,0.256l-0.135,0.119
		c-0.101-0.061-0.213-0.109-0.338-0.149s-0.269-0.062-0.428-0.062c-0.45,0-0.806,0.147-1.064,0.443
		c-0.261,0.295-0.391,0.643-0.391,1.041v0.602c0,0.609,0.008,1.186,0.021,1.726c0.017,0.54,0.048,1.062,0.099,1.562
		c-0.131-0.021-0.291-0.029-0.484-0.029c-0.194,0-0.405,0-0.634,0s-0.438,0-0.625,0c-0.188,0-0.354,0.01-0.491,0.029
		c0.043-0.5,0.072-1.021,0.085-1.562c0.013-0.54,0.021-1.112,0.021-1.726v-0.602c0-0.609-0.008-1.182-0.021-1.717
		c-0.013-0.535-0.042-1.072-0.085-1.611c0.168,0.021,0.34,0.037,0.513,0.051c0.174,0.018,0.347,0.022,0.516,0.022
		c0.168,0,0.34-0.007,0.514-0.022c0.173-0.014,0.345-0.03,0.514-0.051l-0.045,1.828L60.259,95.792z"/>
	<path fill="#ED9E21" d="M65.899,98.688c0.08,0.351,0.202,0.651,0.367,0.906c0.165,0.256,0.375,0.455,0.63,0.6
		c0.256,0.146,0.554,0.22,0.894,0.22c0.689,0,1.306-0.226,1.846-0.677l0.18,0.137l-0.33,0.84c-0.25,0.189-0.55,0.344-0.899,0.458
		c-0.351,0.114-0.811,0.172-1.38,0.172c-0.489,0-0.955-0.065-1.396-0.2c-0.439-0.137-0.828-0.357-1.163-0.668
		c-0.335-0.312-0.6-0.703-0.795-1.179c-0.193-0.476-0.292-1.043-0.292-1.703c0-0.647,0.087-1.215,0.263-1.692
		c0.176-0.48,0.418-0.881,0.729-1.2c0.31-0.32,0.677-0.56,1.103-0.72c0.426-0.16,0.888-0.24,1.388-0.24
		c0.989,0,1.748,0.289,2.271,0.869c0.525,0.58,0.788,1.399,0.788,2.461v0.312c0,0.092-0.005,0.15-0.016,0.182H65.78
		C65.779,97.961,65.819,98.336,65.899,98.688z M67.811,95.086c-0.165-0.449-0.441-0.675-0.832-0.675
		c-0.22,0-0.404,0.075-0.555,0.226c-0.15,0.149-0.271,0.342-0.36,0.577s-0.156,0.5-0.202,0.795
		c-0.045,0.296-0.072,0.589-0.083,0.878h2.312C68.069,96.137,67.976,95.537,67.811,95.086z"/>
	<path fill="#ED9E21" d="M75.357,95.986c0.205-0.5,0.479-0.916,0.817-1.252c0.34-0.336,0.731-0.586,1.178-0.75
		c0.444-0.166,0.902-0.248,1.372-0.248c1.17,0,2.075,0.33,2.715,0.99c0.641,0.658,0.96,1.555,0.96,2.686
		c0,0.609-0.09,1.16-0.27,1.65c-0.181,0.488-0.434,0.905-0.758,1.252c-0.325,0.346-0.712,0.603-1.162,0.771
		s-0.945,0.255-1.485,0.255c-0.45,0-0.893-0.061-1.327-0.18c-0.436-0.12-0.828-0.322-1.178-0.605
		c-0.351-0.285-0.633-0.658-0.848-1.117c-0.216-0.461-0.322-1.025-0.322-1.695S75.152,96.486,75.357,95.986z M79.849,95.139
		c-0.22-0.484-0.585-0.728-1.095-0.728c-0.46,0-0.823,0.271-1.088,0.812c-0.266,0.539-0.397,1.385-0.397,2.533
		c0,0.42,0.025,0.811,0.075,1.17c0.05,0.36,0.133,0.674,0.247,0.938c0.115,0.267,0.266,0.474,0.45,0.623
		c0.186,0.148,0.418,0.226,0.696,0.226c0.96,0,1.44-1.175,1.44-3.524C80.179,96.307,80.069,95.625,79.849,95.139z"/>
	<path fill="#ED9E21" d="M87.514,94.216c-0.01,0.062-0.015,0.126-0.015,0.195c0,0.062,0.005,0.123,0.015,0.188
		c0.01,0.063,0.021,0.127,0.03,0.188l-1.41-0.03v1.245c0,0.98,0.01,1.881,0.03,2.7s0.05,1.635,0.09,2.444
		c-0.13-0.021-0.295-0.029-0.495-0.029c-0.2,0-0.41,0-0.63,0c-0.221,0-0.432,0-0.63,0c-0.2,0-0.365,0.01-0.495,0.029
		c0.04-0.812,0.068-1.625,0.09-2.444c0.02-0.819,0.03-1.72,0.03-2.7v-1.229l-1.052,0.015c0.03-0.12,0.047-0.245,0.047-0.375
		c0-0.12-0.017-0.255-0.047-0.405l1.052,0.045c0.1-0.609,0.225-1.175,0.375-1.693c0.148-0.521,0.347-0.971,0.592-1.352
		c0.245-0.38,0.553-0.677,0.923-0.893c0.37-0.215,0.825-0.322,1.365-0.322c0.17,0,0.38,0.025,0.63,0.075
		c-0.03,0.159-0.048,0.378-0.053,0.651c-0.005,0.274-0.009,0.543-0.009,0.804v0.495l-0.18,0.06c-0.2-0.108-0.43-0.21-0.688-0.3
		c-0.262-0.09-0.512-0.135-0.75-0.135c-0.291,0-0.514,0.048-0.668,0.143c-0.155,0.096-0.232,0.264-0.232,0.502
		c0,0.23,0.067,0.525,0.202,0.887c0.136,0.358,0.303,0.715,0.503,1.063l1.41-0.03C87.534,94.086,87.524,94.156,87.514,94.216z"/>
	<path fill="#ED9E21" d="M94.354,98.688c0.08,0.351,0.202,0.651,0.367,0.906c0.165,0.256,0.375,0.455,0.63,0.6
		c0.256,0.146,0.553,0.22,0.894,0.22c0.689,0,1.306-0.226,1.846-0.677l0.18,0.137l-0.33,0.84c-0.25,0.189-0.55,0.344-0.899,0.458
		c-0.351,0.114-0.811,0.172-1.38,0.172c-0.489,0-0.955-0.065-1.396-0.2c-0.439-0.137-0.828-0.357-1.163-0.668
		c-0.335-0.312-0.6-0.703-0.795-1.179c-0.194-0.476-0.292-1.043-0.292-1.703c0-0.647,0.087-1.215,0.263-1.692
		c0.176-0.48,0.417-0.881,0.729-1.2c0.31-0.32,0.677-0.56,1.103-0.72c0.426-0.16,0.888-0.24,1.388-0.24
		c0.989,0,1.748,0.289,2.271,0.869c0.525,0.58,0.788,1.399,0.788,2.461v0.312c0,0.092-0.005,0.15-0.016,0.182h-4.306
		C94.234,97.961,94.274,98.336,94.354,98.688z M96.266,95.086c-0.165-0.449-0.441-0.675-0.832-0.675
		c-0.22,0-0.405,0.075-0.555,0.226c-0.15,0.149-0.271,0.342-0.36,0.577s-0.157,0.5-0.202,0.795
		c-0.045,0.296-0.072,0.589-0.083,0.878h2.312C96.524,96.137,96.431,95.537,96.266,95.086z"/>
	<path fill="#ED9E21" d="M101.367,99.91c-0.266,0.425-0.519,0.837-0.759,1.236c-0.199-0.021-0.403-0.029-0.613-0.029
		c-0.102,0-0.203,0-0.309,0c-0.104,0-0.228,0.01-0.368,0.029c0.07-0.062,0.203-0.215,0.397-0.465c0.195-0.25,0.41-0.537,0.646-0.863
		c0.234-0.323,0.476-0.656,0.721-0.996s0.458-0.646,0.638-0.915c-0.18-0.33-0.388-0.692-0.622-1.089
		c-0.235-0.396-0.466-0.781-0.689-1.161c-0.225-0.38-0.436-0.726-0.631-1.035c-0.194-0.31-0.343-0.54-0.441-0.688
		c0.239,0.021,0.465,0.037,0.675,0.051c0.21,0.018,0.415,0.022,0.615,0.022c0.199,0,0.401-0.007,0.606-0.022
		c0.205-0.014,0.407-0.03,0.607-0.051c0.21,0.391,0.42,0.784,0.63,1.186c0.21,0.398,0.43,0.8,0.66,1.199
		c0.27-0.42,0.537-0.816,0.803-1.191s0.518-0.771,0.757-1.191c0.11,0.021,0.215,0.037,0.315,0.053s0.205,0.021,0.313,0.021
		c0.11,0,0.221-0.007,0.33-0.021c0.11-0.016,0.235-0.032,0.375-0.053c-0.09,0.108-0.231,0.287-0.427,0.531
		c-0.196,0.245-0.41,0.52-0.646,0.817c-0.236,0.299-0.476,0.608-0.721,0.93s-0.463,0.61-0.651,0.87
		c0.398,0.689,0.805,1.373,1.215,2.048c0.41,0.677,0.825,1.349,1.245,2.019c-0.2-0.021-0.405-0.029-0.615-0.029s-0.415,0-0.615,0
		c-0.2,0-0.405,0-0.615,0s-0.415,0.01-0.613,0.029l-1.381-2.504C101.909,99.062,101.631,99.484,101.367,99.91z"/>
	<path fill="#ED9E21" d="M112.121,94.915c-0.234-0.274-0.582-0.413-1.042-0.413c-0.602,0-1.051,0.271-1.352,0.816
		c-0.3,0.547-0.449,1.304-0.449,2.271c0,0.91,0.189,1.607,0.569,2.094c0.38,0.484,0.937,0.729,1.665,0.729
		c0.311,0,0.61-0.072,0.9-0.219c0.29-0.146,0.505-0.309,0.645-0.486l0.181,0.15c-0.069,0.14-0.131,0.285-0.181,0.435
		c-0.05,0.149-0.1,0.3-0.148,0.45c-0.222,0.17-0.498,0.312-0.833,0.428c-0.335,0.114-0.732,0.172-1.192,0.172
		c-0.73,0-1.345-0.104-1.845-0.314c-0.5-0.209-0.902-0.493-1.208-0.854c-0.306-0.357-0.522-0.768-0.652-1.223
		c-0.13-0.454-0.195-0.912-0.195-1.372c0-0.552,0.094-1.062,0.278-1.53c0.184-0.469,0.449-0.875,0.795-1.215
		c0.345-0.34,0.762-0.605,1.252-0.805c0.49-0.192,1.035-0.291,1.636-0.291c0.569,0,1.053,0.064,1.447,0.195
		c0.396,0.129,0.772,0.299,1.132,0.51c-0.119,0.199-0.231,0.445-0.337,0.734c-0.104,0.291-0.183,0.564-0.231,0.824h-0.36
		C112.513,95.551,112.356,95.189,112.121,94.915z"/>
	<path fill="#ED9E21" d="M116.583,98.688c0.08,0.351,0.202,0.651,0.367,0.906c0.164,0.256,0.375,0.455,0.63,0.6
		c0.256,0.146,0.553,0.22,0.893,0.22c0.69,0,1.306-0.226,1.846-0.677l0.181,0.137l-0.33,0.84c-0.25,0.189-0.55,0.344-0.9,0.458
		s-0.81,0.172-1.38,0.172c-0.489,0-0.955-0.065-1.395-0.2c-0.44-0.137-0.828-0.357-1.163-0.668
		c-0.335-0.312-0.601-0.703-0.795-1.179c-0.194-0.476-0.292-1.043-0.292-1.703c0-0.647,0.087-1.215,0.263-1.692
		c0.175-0.48,0.417-0.881,0.728-1.2c0.311-0.32,0.678-0.56,1.104-0.72c0.425-0.16,0.887-0.24,1.387-0.24
		c0.99,0,1.748,0.289,2.272,0.869s0.788,1.399,0.788,2.461v0.312c0,0.092-0.006,0.15-0.017,0.182h-4.305
		C116.463,97.961,116.503,98.336,116.583,98.688z M118.496,95.086c-0.165-0.449-0.442-0.675-0.832-0.675
		c-0.221,0-0.405,0.075-0.556,0.226c-0.149,0.149-0.271,0.342-0.359,0.577s-0.157,0.5-0.202,0.795
		c-0.045,0.296-0.073,0.589-0.083,0.878h2.311C118.753,96.137,118.661,95.537,118.496,95.086z"/>
	<path fill="#ED9E21" d="M122.208,92.327c-0.021-0.819-0.05-1.649-0.09-2.49c0.13,0.021,0.295,0.038,0.494,0.054
		c0.2,0.016,0.41,0.021,0.631,0.021c0.22,0,0.43-0.008,0.63-0.021c0.199-0.015,0.364-0.033,0.495-0.054
		c-0.04,0.841-0.07,1.671-0.091,2.49s-0.029,1.72-0.029,2.7v0.975c0,0.98,0.01,1.881,0.029,2.7c0.021,0.819,0.051,1.635,0.091,2.444
		c-0.131-0.021-0.295-0.029-0.495-0.029s-0.41,0-0.63,0c-0.221,0-0.431,0-0.631,0c-0.199,0-0.364,0.01-0.494,0.029
		c0.04-0.812,0.069-1.625,0.09-2.444s0.029-1.72,0.029-2.7v-0.975C122.239,94.046,122.229,93.146,122.208,92.327z"/>
	<path fill="#ED9E21" d="M126.289,92.327c-0.021-0.819-0.051-1.649-0.09-2.49c0.13,0.021,0.295,0.038,0.494,0.054
		c0.2,0.016,0.41,0.021,0.631,0.021c0.22,0,0.43-0.008,0.63-0.021c0.199-0.015,0.364-0.033,0.495-0.054
		c-0.04,0.841-0.07,1.671-0.091,2.49s-0.029,1.72-0.029,2.7v0.975c0,0.98,0.01,1.881,0.029,2.7c0.021,0.819,0.051,1.635,0.091,2.444
		c-0.131-0.021-0.296-0.029-0.495-0.029c-0.2,0-0.41,0-0.63,0c-0.221,0-0.431,0-0.631,0c-0.199,0-0.364,0.01-0.494,0.029
		c0.039-0.812,0.069-1.625,0.09-2.444s0.029-1.72,0.029-2.7v-0.975C126.319,94.046,126.309,93.146,126.289,92.327z"/>
	<path fill="#ED9E21" d="M132.154,98.688c0.08,0.351,0.202,0.651,0.367,0.906c0.165,0.256,0.375,0.455,0.63,0.6
		c0.257,0.146,0.554,0.22,0.894,0.22c0.689,0,1.306-0.226,1.846-0.677l0.18,0.137l-0.329,0.84c-0.25,0.189-0.551,0.344-0.9,0.458
		c-0.35,0.114-0.811,0.172-1.38,0.172c-0.489,0-0.955-0.065-1.396-0.2c-0.439-0.137-0.828-0.357-1.163-0.668
		c-0.335-0.312-0.6-0.703-0.795-1.179c-0.193-0.476-0.292-1.043-0.292-1.703c0-0.647,0.087-1.215,0.264-1.692
		c0.175-0.48,0.417-0.881,0.728-1.2c0.311-0.32,0.677-0.56,1.104-0.72c0.425-0.16,0.887-0.24,1.387-0.24
		c0.99,0,1.748,0.289,2.271,0.869c0.525,0.58,0.788,1.399,0.788,2.461v0.312c0,0.092-0.005,0.15-0.016,0.182h-4.305
		C132.034,97.961,132.074,98.336,132.154,98.688z M134.066,95.086c-0.165-0.449-0.441-0.675-0.832-0.675
		c-0.22,0-0.404,0.075-0.555,0.226c-0.15,0.149-0.271,0.342-0.36,0.577c-0.089,0.235-0.156,0.5-0.201,0.795
		c-0.046,0.296-0.073,0.589-0.083,0.878h2.311C134.324,96.137,134.231,95.537,134.066,95.086z"/>
	<path fill="#ED9E21" d="M139.654,95.057c0.28-0.42,0.607-0.744,0.982-0.976c0.375-0.229,0.803-0.345,1.283-0.345
		c0.75,0,1.327,0.218,1.731,0.652c0.404,0.434,0.607,1.137,0.607,2.105c0,0.51-0.011,0.96-0.03,1.352
		c-0.021,0.391-0.03,0.778-0.03,1.17c0,0.318,0.009,0.668,0.022,1.043c0.016,0.375,0.032,0.735,0.053,1.088
		c-0.13-0.021-0.295-0.03-0.495-0.03c-0.199,0-0.409,0-0.63,0c-0.22,0-0.43,0-0.63,0c-0.2,0-0.365,0.01-0.495,0.03
		c0.07-0.521,0.115-1.133,0.136-1.838s0.029-1.515,0.029-2.425c0-0.63-0.106-1.092-0.321-1.387c-0.217-0.295-0.519-0.44-0.907-0.44
		c-0.45,0-0.78,0.192-0.99,0.584c-0.21,0.391-0.315,0.93-0.315,1.618v0.603c0,0.609,0.009,1.185,0.022,1.725
		c0.016,0.54,0.048,1.061,0.098,1.561c-0.13-0.021-0.292-0.028-0.486-0.028c-0.195,0-0.407,0-0.639,0c-0.23,0-0.439,0-0.63,0
		c-0.189,0-0.354,0.01-0.495,0.028c0.051-0.5,0.083-1.021,0.099-1.561c0.015-0.54,0.021-1.113,0.021-1.725V97.26
		c0-0.609-0.008-1.182-0.021-1.717c-0.015-0.535-0.048-1.072-0.099-1.611c0.181,0.021,0.357,0.037,0.532,0.051
		c0.175,0.018,0.354,0.022,0.533,0.022c0.179,0,0.356-0.007,0.532-0.022c0.175-0.014,0.361-0.03,0.562-0.051l-0.061,1.125H139.654
		L139.654,95.057z"/>
	<path fill="#ED9E21" d="M150.761,94.915c-0.234-0.274-0.582-0.413-1.042-0.413c-0.601,0-1.05,0.271-1.351,0.816
		c-0.301,0.547-0.449,1.304-0.449,2.271c0,0.91,0.188,1.607,0.568,2.094c0.381,0.484,0.937,0.729,1.665,0.729
		c0.311,0,0.61-0.072,0.9-0.219c0.29-0.146,0.505-0.309,0.645-0.486l0.182,0.15c-0.07,0.14-0.131,0.285-0.182,0.435
		c-0.05,0.149-0.1,0.3-0.148,0.45c-0.221,0.17-0.498,0.312-0.833,0.428c-0.335,0.114-0.732,0.172-1.192,0.172
		c-0.729,0-1.345-0.104-1.845-0.314c-0.5-0.209-0.902-0.493-1.208-0.854c-0.305-0.357-0.521-0.768-0.652-1.223
		c-0.13-0.454-0.194-0.912-0.194-1.372c0-0.552,0.093-1.062,0.277-1.53c0.186-0.47,0.449-0.875,0.795-1.215
		c0.346-0.34,0.763-0.605,1.253-0.805c0.489-0.192,1.034-0.291,1.636-0.291c0.568,0,1.052,0.064,1.447,0.195
		c0.395,0.129,0.771,0.299,1.132,0.51c-0.119,0.199-0.232,0.445-0.337,0.734c-0.105,0.291-0.184,0.564-0.232,0.824h-0.36
		C151.154,95.551,150.997,95.189,150.761,94.915z"/>
	<path fill="#ED9E21" d="M155.224,98.688c0.08,0.351,0.202,0.651,0.367,0.906c0.165,0.256,0.375,0.455,0.63,0.6
		c0.256,0.146,0.553,0.22,0.893,0.22c0.69,0,1.307-0.226,1.847-0.677l0.18,0.137l-0.33,0.84c-0.25,0.189-0.55,0.344-0.899,0.458
		c-0.351,0.114-0.811,0.172-1.381,0.172c-0.488,0-0.954-0.065-1.395-0.2c-0.44-0.137-0.828-0.357-1.163-0.668
		c-0.335-0.312-0.6-0.703-0.795-1.179c-0.194-0.476-0.292-1.043-0.292-1.703c0-0.647,0.087-1.215,0.263-1.692
		c0.175-0.48,0.417-0.881,0.729-1.2c0.31-0.32,0.677-0.56,1.103-0.72c0.425-0.16,0.888-0.24,1.388-0.24
		c0.989,0,1.747,0.289,2.271,0.869c0.525,0.58,0.788,1.399,0.788,2.461v0.312c0,0.092-0.005,0.15-0.016,0.182h-4.306
		C155.104,97.961,155.144,98.336,155.224,98.688z M157.136,95.086c-0.165-0.449-0.442-0.675-0.832-0.675
		c-0.22,0-0.405,0.075-0.555,0.226c-0.15,0.149-0.271,0.342-0.36,0.577c-0.089,0.235-0.157,0.5-0.202,0.795
		c-0.045,0.296-0.073,0.589-0.083,0.878h2.312C157.394,96.137,157.301,95.537,157.136,95.086z"/>
	<path fill="#ED9E21" d="M168.588,94.216c-0.01,0.062-0.016,0.126-0.016,0.195c0,0.062,0.006,0.123,0.016,0.188
		c0.01,0.063,0.02,0.127,0.03,0.188l-1.41-0.03v1.245c0,0.98,0.01,1.881,0.028,2.7c0.021,0.819,0.052,1.635,0.092,2.444
		c-0.131-0.021-0.295-0.029-0.495-0.029s-0.41,0-0.63,0c-0.223,0-0.432,0-0.631,0s-0.364,0.01-0.494,0.029
		c0.04-0.812,0.068-1.625,0.09-2.444c0.02-0.819,0.029-1.72,0.029-2.7v-1.229l-1.051,0.015c0.03-0.12,0.046-0.245,0.046-0.375
		c0-0.12-0.016-0.255-0.046-0.405l1.051,0.045c0.101-0.609,0.226-1.175,0.375-1.693c0.148-0.521,0.348-0.971,0.593-1.352
		c0.245-0.38,0.553-0.677,0.923-0.893c0.37-0.215,0.825-0.322,1.365-0.322c0.17,0,0.38,0.025,0.63,0.075
		c-0.03,0.159-0.048,0.378-0.054,0.651c-0.006,0.274-0.008,0.543-0.008,0.804v0.495l-0.181,0.06c-0.2-0.108-0.43-0.21-0.688-0.3
		c-0.262-0.09-0.512-0.135-0.75-0.135c-0.291,0-0.514,0.048-0.668,0.143c-0.154,0.096-0.231,0.264-0.231,0.502
		c0,0.23,0.065,0.525,0.202,0.887c0.136,0.358,0.303,0.715,0.503,1.063l1.41-0.03C168.607,94.086,168.598,94.156,168.588,94.216z"/>
	<path fill="#ED9E21" d="M169.316,95.986c0.205-0.5,0.479-0.916,0.816-1.252c0.34-0.336,0.73-0.586,1.178-0.75
		c0.444-0.166,0.902-0.248,1.373-0.248c1.17,0,2.074,0.33,2.715,0.99c0.641,0.658,0.959,1.555,0.959,2.686
		c0,0.609-0.09,1.16-0.27,1.65c-0.182,0.488-0.434,0.905-0.758,1.252c-0.325,0.346-0.712,0.603-1.162,0.771
		s-0.945,0.255-1.484,0.255c-0.451,0-0.894-0.061-1.328-0.18c-0.436-0.12-0.828-0.322-1.178-0.605
		c-0.351-0.285-0.633-0.658-0.848-1.117c-0.217-0.461-0.322-1.025-0.322-1.695S169.111,96.486,169.316,95.986z M173.809,95.139
		c-0.221-0.484-0.586-0.728-1.096-0.728c-0.46,0-0.822,0.271-1.088,0.812c-0.266,0.539-0.396,1.385-0.396,2.533
		c0,0.42,0.024,0.811,0.074,1.17c0.051,0.36,0.133,0.674,0.247,0.938c0.115,0.267,0.267,0.474,0.45,0.623
		c0.186,0.148,0.418,0.226,0.695,0.226c0.961,0,1.441-1.175,1.441-3.524C174.139,96.307,174.027,95.625,173.809,95.139z"/>
	<path fill="#ED9E21" d="M179.704,95.792c0.26-0.688,0.573-1.196,0.942-1.522c0.371-0.324,0.812-0.485,1.32-0.485
		c0.051,0,0.092,0.003,0.127,0.008s0.073,0.007,0.113,0.007c-0.029,0.15-0.055,0.312-0.066,0.479
		c-0.017,0.172-0.021,0.371-0.021,0.602v0.479c0,0.08,0,0.166,0,0.256c0,0.091,0.005,0.176,0.015,0.256l-0.135,0.119
		c-0.103-0.061-0.213-0.109-0.338-0.149s-0.269-0.062-0.429-0.062c-0.449,0-0.805,0.147-1.063,0.443
		c-0.261,0.295-0.392,0.643-0.392,1.041v0.602c0,0.609,0.009,1.186,0.021,1.726c0.016,0.54,0.049,1.062,0.098,1.562
		c-0.129-0.021-0.291-0.029-0.482-0.029c-0.193,0-0.405,0-0.635,0c-0.229,0-0.438,0-0.625,0c-0.188,0-0.354,0.01-0.49,0.029
		c0.043-0.5,0.07-1.021,0.085-1.562c0.013-0.54,0.021-1.112,0.021-1.726v-0.602c0-0.609-0.008-1.182-0.021-1.717
		c-0.015-0.535-0.042-1.072-0.085-1.611c0.168,0.021,0.34,0.037,0.514,0.051c0.174,0.018,0.346,0.022,0.514,0.022
		s0.342-0.007,0.516-0.022c0.173-0.014,0.346-0.03,0.514-0.051l-0.045,1.828L179.704,95.792z"/>
</g>
<line fill="none" stroke="#ED9E21" stroke-miterlimit="10" x1="237.146" y1="44.11" x2="241.016" y2="22.827"/>
<line fill="none" stroke="#ED9E21" stroke-miterlimit="10" x1="258.535" y1="54.444" x2="237.463" y2="44.109"/>
<polyline fill="none" stroke="#ED9E21" stroke-linejoin="round" stroke-miterlimit="10" points="269.246,22.695 247.223,10.947 
	274.723,36.695 258.535,54.444 "/>
<polyline fill="none" stroke="#ED9E21" stroke-miterlimit="10" points="241.016,22.827 247.223,10.947 253.102,32.833 
	274.723,36.695 269.246,22.695 "/>
<polyline fill="none" stroke="#ED9E21" stroke-miterlimit="10" points="237.146,44.11 253.102,32.833 269.246,22.695 "/>
<circle fill="#FFFFFF" stroke="#F29F20" stroke-width="0.75" stroke-miterlimit="10" cx="247.229" cy="10.938" r="1.691"/>
<path fill="#FFFFFF" stroke="#F29F20" stroke-width="0.75" stroke-miterlimit="10" d="M242.283,21.706
	c0.621,0.696,0.557,1.764-0.141,2.384c-0.695,0.621-1.768,0.561-2.388-0.137c-0.62-0.699-0.56-1.77,0.138-2.389
	C240.593,20.943,241.662,21.005,242.283,21.706z"/>
<path fill="#FFFFFF" stroke="#F29F20" stroke-width="0.75" stroke-miterlimit="10" d="M275.991,35.563
	c0.622,0.697,0.562,1.767-0.14,2.387c-0.695,0.62-1.765,0.56-2.386-0.139c-0.62-0.699-0.562-1.766,0.136-2.388
	C274.301,34.803,275.372,34.864,275.991,35.563z"/>
<line fill="none" stroke="#ED9E21" stroke-miterlimit="10" x1="258.535" y1="54.444" x2="253.102" y2="32.833"/>
<circle fill="#FFFFFF" stroke="#F29F20" stroke-width="0.75" stroke-miterlimit="10" cx="253.105" cy="32.832" r="1.691"/>
<circle fill="#FFFFFF" stroke="#F29F20" stroke-width="0.75" stroke-miterlimit="10" cx="269.252" cy="22.687" r="1.691"/>
<circle fill="#FFFFFF" stroke="#F29F20" stroke-width="0.75" stroke-miterlimit="10" cx="258.541" cy="54.435" r="1.691"/>
<circle fill="#FFFFFF" stroke="#F29F20" stroke-width="0.75" stroke-miterlimit="10" cx="237.148" cy="44.109" r="1.691"/>
<path fill="none" stroke="#383938" stroke-linecap="round" stroke-miterlimit="10" d="M75.733,130"/>
<path fill="none" stroke="#383938" stroke-linecap="round" stroke-miterlimit="10" d="M75.733,151.738"/>
<path fill="none" stroke="#BA7CB5" stroke-linecap="round" stroke-miterlimit="10" d="M247.047,164.992"/>
<path fill="none" stroke="#BA7CB5" stroke-linecap="round" stroke-miterlimit="10" d="M247.047-4.823"/>
</svg>
