<?xml version="1.0" encoding="utf-8"?>
<!-- Generator: Adobe Illustrator 22.0.1, SVG Export Plug-In . SVG Version: 6.00 Build 0)  -->
<svg version="1.1" id="Capa_1" xmlns="http://www.w3.org/2000/svg" xmlns:xlink="http://www.w3.org/1999/xlink" x="0px" y="0px"
	 width="736.4px" height="90.5px" viewBox="0 0 736.4 90.5" style="enable-background:new 0 0 736.4 90.5;" xml:space="preserve">
<style type="text/css">
	.st0{fill:#2A3133;}
	.st1{enable-background:new    ;}
	.st2{fill:#083B66;}
	.st3{fill:url(#SVGID_1_);}
	.st4{fill:url(#SVGID_2_);}
	.st5{opacity:0.55;fill:url(#SVGID_3_);stroke:#000000;stroke-width:1.95;stroke-miterlimit:10;enable-background:new    ;}
	.st6{fill:url(#SVGID_4_);}
	.st7{fill:url(#SVGID_5_);}
	.st8{fill:url(#SVGID_6_);}
	.st9{fill:url(#SVGID_7_);}
	.st10{opacity:0.55;fill:url(#SVGID_8_);stroke:#000000;stroke-width:1.95;stroke-miterlimit:10;enable-background:new    ;}
	.st11{fill:url(#SVGID_9_);}
	.st12{fill:url(#SVGID_10_);}
	.st13{fill:url(#SVGID_11_);}
	.st14{fill:url(#SVGID_12_);}
</style>
<g>
	<path class="st0" d="M152.4,53.8l-6.1-16h-0.1c0.1,1.3,0.2,2.8,0.2,4.5v11.5h-1.9v-18h3.2l5.7,14.9h0.1l5.8-14.9h3.1v18h-2.1V42.1
		c0-1.3,0.1-2.8,0.2-4.3h-0.1l-6.2,16H152.4L152.4,53.8z"/>
	<path class="st0" d="M177.4,49c0,1.6-0.6,2.8-1.7,3.7c-1.1,0.9-2.7,1.3-4.7,1.3c-2.1,0-3.8-0.3-4.9-0.8v-2c0.7,0.3,1.6,0.6,2.4,0.7
		c0.9,0.2,1.7,0.3,2.6,0.3c1.4,0,2.4-0.3,3.2-0.8c0.7-0.5,1.1-1.3,1.1-2.2c0-0.6-0.1-1.1-0.4-1.5c-0.3-0.4-0.7-0.8-1.3-1.1
		s-1.5-0.7-2.7-1.1c-1.7-0.6-2.9-1.3-3.6-2.1c-0.7-0.8-1.1-1.9-1.1-3.2c0-1.4,0.5-2.5,1.6-3.3c1-0.8,2.4-1.2,4.1-1.2
		c1.8,0,3.4,0.3,5,1l-0.7,1.8c-1.5-0.6-2.9-0.9-4.3-0.9c-1.1,0-2,0.2-2.6,0.7s-0.9,1.1-0.9,2c0,0.6,0.1,1.1,0.3,1.5s0.6,0.8,1.2,1.1
		c0.5,0.3,1.4,0.7,2.5,1.1c1.9,0.7,3.2,1.4,3.9,2.2C177,46.7,177.4,47.7,177.4,49z"/>
	<path class="st0" d="M196.7,44.7c0,2.9-0.7,5.2-2.2,6.8c-1.5,1.7-3.5,2.5-6.1,2.5c-2.7,0-4.7-0.8-6.1-2.4c-1.4-1.6-2.2-3.9-2.2-6.9
		c0-2.9,0.7-5.2,2.2-6.8c1.4-1.6,3.5-2.4,6.2-2.4c2.6,0,4.6,0.8,6.1,2.5C196,39.5,196.7,41.8,196.7,44.7z M182.4,44.7
		c0,2.4,0.5,4.3,1.6,5.6c1,1.3,2.5,1.9,4.5,1.9s3.5-0.6,4.5-1.9c1-1.3,1.5-3.1,1.5-5.6c0-2.4-0.5-4.3-1.5-5.5
		c-1-1.3-2.5-1.9-4.5-1.9s-3.5,0.6-4.6,1.9C182.9,40.5,182.4,42.3,182.4,44.7z"/>
	<path class="st0" d="M212.2,41c0,1.8-0.6,3.2-1.9,4.2c-1.2,1-3,1.5-5.3,1.5h-2.1v7.1h-2.1v-18h4.7C209.9,35.7,212.2,37.5,212.2,41z
		 M202.8,44.9h1.9c1.9,0,3.2-0.3,4-0.9c0.8-0.6,1.2-1.6,1.2-2.9c0-1.2-0.4-2.1-1.2-2.7s-2-0.9-3.7-0.9h-2.4v7.4
		C202.6,44.9,202.8,44.9,202.8,44.9z"/>
	<path class="st0" d="M227.3,47c0,2.2-0.6,3.9-1.7,5.2c-1.1,1.2-2.6,1.9-4.6,1.9c-1.2,0-2.3-0.3-3.2-0.9c-1-0.6-1.7-1.4-2.2-2.4
		c-0.5-1.1-0.8-2.3-0.8-3.7c0-2.2,0.5-3.9,1.7-5.2c1.1-1.2,2.6-1.8,4.6-1.8c1.9,0,3.4,0.6,4.5,1.9C226.7,43.1,227.3,44.8,227.3,47z
		 M217,47c0,1.7,0.3,3.1,1,3.9c0.7,0.9,1.7,1.4,3.1,1.4c1.3,0,2.4-0.4,3.1-1.4c0.7-0.9,1-2.2,1-3.9s-0.3-3-1-3.9s-1.7-1.3-3.1-1.3
		c-1.3,0-2.4,0.4-3,1.3C217.4,43.9,217,45.2,217,47z"/>
	<path class="st0" d="M237.1,40c0.6,0,1.1,0.1,1.6,0.2l-0.3,1.9c-0.6-0.1-1-0.2-1.5-0.2c-1.1,0-2,0.4-2.8,1.3
		c-0.8,0.9-1.2,2-1.2,3.3v7.3h-2V40.2h1.7l0.2,2.5h0.1c0.5-0.9,1.1-1.6,1.8-2C235.5,40.2,236.2,40,237.1,40z"/>
	<path class="st0" d="M245.6,52.3c0.4,0,0.7,0,1-0.1s0.6-0.1,0.8-0.2v1.6c-0.2,0.1-0.5,0.2-1,0.3c-0.4,0.1-0.8,0.1-1.2,0.1
		c-2.6,0-3.9-1.4-3.9-4.1v-8h-1.9v-1l1.9-0.9l0.9-2.9h1.2v3.1h3.9v1.6h-3.9v8c0,0.8,0.2,1.4,0.6,1.9
		C244.4,52.1,244.9,52.3,245.6,52.3z"/>
	<path class="st0" d="M258.5,53.8l-0.4-1.9H258c-0.7,0.9-1.3,1.4-2,1.7c-0.7,0.3-1.5,0.4-2.5,0.4c-1.3,0-2.4-0.3-3.1-1
		c-0.8-0.7-1.1-1.7-1.1-3c0-2.7,2.2-4.2,6.6-4.3l2.3-0.1v-0.8c0-1.1-0.2-1.8-0.7-2.4c-0.4-0.5-1.2-0.8-2.2-0.8c-1.1,0-2.4,0.3-3.8,1
		l-0.6-1.6c0.7-0.4,1.4-0.6,2.2-0.9c0.8-0.2,1.6-0.3,2.4-0.3c1.6,0,2.8,0.3,3.6,1.1c0.8,0.7,1.2,1.9,1.2,3.4v9.2L258.5,53.8
		L258.5,53.8z M253.8,52.3c1.3,0,2.3-0.3,3-1c0.7-0.7,1.1-1.7,1.1-2.9v-1.2l-2,0.1c-1.6,0.1-2.8,0.3-3.5,0.8
		c-0.7,0.4-1.1,1.1-1.1,2.1c0,0.7,0.2,1.3,0.7,1.7C252.4,52.1,253,52.3,253.8,52.3z"/>
	<path class="st0" d="M266.3,53.8h-2V34.5h2V53.8z"/>
</g>
<g class="st1">
	<path class="st2" d="M64.6,58.2h2.5l1.2,4.9c0.1,0.5,0.2,1.1,0.3,1.6c0.1,0.5,0.1,1,0.2,1.4h0.1c0.1-0.4,0.1-0.9,0.2-1.4
		c0.1-0.5,0.2-1,0.3-1.6l1.3-4.9h2.5v12.7h-1.8v-4.2c0-0.6,0-1.3,0-1.9c0-0.6,0-1.1,0-1.6c0-0.5,0-0.9,0.1-1.3c0-0.4,0-0.7,0.1-0.9
		h-0.1l-1.9,8.3h-1.2L66.3,61h-0.1c0,0.2,0,0.5,0.1,0.9c0,0.4,0,0.8,0.1,1.3c0,0.5,0,1,0,1.6c0,0.6,0,1.2,0,1.9v4.2h-1.8V58.2z"/>
	<path class="st2" d="M74.8,68.3c0-0.3,0-0.5,0-0.8c0-0.2,0.1-0.5,0.1-0.7h1.5v0.6c0,0.3,0,0.6,0.1,0.9c0,0.3,0.1,0.5,0.2,0.7
		c0.1,0.2,0.2,0.3,0.4,0.4c0.2,0.1,0.4,0.1,0.6,0.1c0.4,0,0.6-0.1,0.8-0.3c0.2-0.2,0.3-0.5,0.3-0.9c0-0.2,0-0.4,0-0.5
		s-0.1-0.3-0.1-0.5c-0.1-0.2-0.2-0.3-0.3-0.5c-0.1-0.2-0.3-0.4-0.4-0.6l-2-2.4c-0.4-0.5-0.6-0.9-0.8-1.4c-0.2-0.5-0.3-1-0.3-1.5
		c0-0.4,0.1-0.8,0.2-1.2c0.1-0.4,0.3-0.7,0.6-0.9s0.6-0.5,0.9-0.6c0.4-0.1,0.8-0.2,1.2-0.2c0.6,0,1,0.1,1.4,0.2
		c0.4,0.2,0.7,0.4,0.9,0.6c0.2,0.3,0.4,0.5,0.5,0.9c0.1,0.3,0.1,0.6,0.1,1c0,0.3,0,0.5-0.1,0.8c0,0.2-0.1,0.5-0.1,0.8H79v-0.6
		c0-0.7-0.1-1.2-0.3-1.5c-0.2-0.4-0.5-0.5-0.9-0.5c-0.4,0-0.6,0.1-0.8,0.3s-0.3,0.5-0.3,0.8c0,0.2,0,0.3,0,0.5
		c0,0.1,0.1,0.3,0.1,0.4c0.1,0.1,0.1,0.2,0.2,0.4c0.1,0.1,0.2,0.2,0.3,0.4l2.2,2.7c0.4,0.5,0.7,1,0.9,1.5c0.2,0.5,0.3,1,0.3,1.5
		c0,0.5-0.1,0.9-0.2,1.2c-0.1,0.4-0.3,0.7-0.6,0.9c-0.3,0.3-0.6,0.4-1,0.6C78.6,71,78.2,71,77.7,71c-0.6,0-1.1-0.1-1.4-0.2
		c-0.4-0.2-0.7-0.4-0.9-0.6c-0.2-0.3-0.4-0.5-0.5-0.9C74.8,69,74.8,68.7,74.8,68.3z"/>
	<path class="st2" d="M85.2,71c-0.2,0-0.4,0-0.7,0c-0.2,0-0.5-0.1-0.7-0.2c-0.2-0.1-0.5-0.3-0.7-0.4s-0.4-0.4-0.6-0.8
		c-0.2-0.3-0.3-0.7-0.4-1.2s-0.1-1-0.1-1.6v-4.5c0-0.6,0.1-1.2,0.2-1.6c0.1-0.5,0.2-0.8,0.4-1.1c0.2-0.3,0.4-0.6,0.6-0.7
		c0.2-0.2,0.4-0.3,0.7-0.4c0.2-0.1,0.5-0.2,0.7-0.2c0.2,0,0.4,0,0.6,0c0.2,0,0.4,0,0.6,0c0.2,0,0.5,0.1,0.7,0.2
		c0.2,0.1,0.5,0.2,0.7,0.4s0.4,0.4,0.6,0.7c0.2,0.3,0.3,0.7,0.4,1.2c0.1,0.5,0.2,1,0.2,1.7v4.5c0,0.6-0.1,1.2-0.2,1.6
		s-0.2,0.8-0.4,1.2c-0.2,0.3-0.4,0.6-0.6,0.8c-0.2,0.2-0.4,0.3-0.7,0.4c-0.2,0.1-0.5,0.2-0.7,0.2C85.6,71,85.4,71,85.2,71z
		 M85.2,69.6c0.2,0,0.4,0,0.5-0.1c0.1-0.1,0.3-0.2,0.3-0.3c0.1-0.2,0.2-0.4,0.2-0.6c0-0.3,0.1-0.6,0.1-1v-5.8c0-0.4,0-0.7-0.1-1
		c0-0.3-0.1-0.5-0.2-0.7c-0.1-0.2-0.2-0.3-0.3-0.4c-0.1-0.1-0.3-0.1-0.5-0.1c-0.2,0-0.4,0-0.5,0.1c-0.1,0.1-0.3,0.2-0.4,0.4
		c-0.1,0.2-0.2,0.4-0.2,0.7s-0.1,0.6-0.1,1v5.8c0,0.4,0,0.7,0.1,1c0,0.3,0.1,0.5,0.2,0.6c0.1,0.2,0.2,0.3,0.4,0.3S85,69.6,85.2,69.6
		z"/>
	<path class="st2" d="M89.6,67.6l3.7-9.4h2.3v8.9h1.2v1.5h-1.2v2.3h-1.8v-2.3h-4.2V67.6z M93.9,67.1v-1.9l0.2-4.8h-0.2l-2.2,6.7
		H93.9z"/>
	<path class="st2" d="M97.8,68.3c0-0.3,0-0.5,0-0.8c0-0.2,0.1-0.5,0.1-0.7h1.5v0.6c0,0.3,0,0.6,0.1,0.9c0,0.3,0.1,0.5,0.2,0.7
		c0.1,0.2,0.2,0.3,0.4,0.4c0.2,0.1,0.4,0.1,0.6,0.1c0.4,0,0.6-0.1,0.8-0.3c0.2-0.2,0.3-0.5,0.3-0.9c0-0.2,0-0.4,0-0.5
		s-0.1-0.3-0.1-0.5c-0.1-0.2-0.2-0.3-0.3-0.5c-0.1-0.2-0.3-0.4-0.4-0.6l-2-2.4c-0.4-0.5-0.6-0.9-0.8-1.4c-0.2-0.5-0.3-1-0.3-1.5
		c0-0.4,0.1-0.8,0.2-1.2c0.1-0.4,0.3-0.7,0.6-0.9s0.6-0.5,0.9-0.6c0.4-0.1,0.8-0.2,1.2-0.2c0.6,0,1,0.1,1.4,0.2
		c0.4,0.2,0.7,0.4,0.9,0.6c0.2,0.3,0.4,0.5,0.5,0.9c0.1,0.3,0.1,0.6,0.1,1c0,0.3,0,0.5-0.1,0.8c0,0.2-0.1,0.5-0.1,0.8H102v-0.6
		c0-0.7-0.1-1.2-0.3-1.5c-0.2-0.4-0.5-0.5-0.9-0.5c-0.4,0-0.6,0.1-0.8,0.3s-0.3,0.5-0.3,0.8c0,0.2,0,0.3,0,0.5
		c0,0.1,0.1,0.3,0.1,0.4c0.1,0.1,0.1,0.2,0.2,0.4c0.1,0.1,0.2,0.2,0.3,0.4l2.2,2.7c0.4,0.5,0.7,1,0.9,1.5c0.2,0.5,0.3,1,0.3,1.5
		c0,0.5-0.1,0.9-0.2,1.2c-0.1,0.4-0.3,0.7-0.6,0.9c-0.3,0.3-0.6,0.4-1,0.6c-0.4,0.1-0.8,0.2-1.3,0.2c-0.6,0-1.1-0.1-1.4-0.2
		c-0.4-0.2-0.7-0.4-0.9-0.6c-0.2-0.3-0.4-0.5-0.5-0.9C97.9,69,97.8,68.7,97.8,68.3z"/>
	<path class="st2" d="M108.1,71c-0.2,0-0.4,0-0.6,0c-0.2,0-0.5-0.1-0.7-0.2c-0.2-0.1-0.5-0.3-0.7-0.4s-0.4-0.4-0.6-0.8
		c-0.2-0.3-0.3-0.7-0.4-1.2c-0.1-0.5-0.1-1-0.1-1.6v-4.5c0-0.6,0-1.2,0.1-1.6s0.2-0.8,0.4-1.1c0.2-0.3,0.4-0.6,0.6-0.7
		c0.2-0.2,0.4-0.3,0.7-0.4c0.2-0.1,0.5-0.2,0.7-0.2c0.2,0,0.4,0,0.6,0c0.5,0,0.9,0.1,1.3,0.2c0.3,0.1,0.6,0.3,0.8,0.6
		c0.2,0.2,0.4,0.5,0.4,0.9c0.1,0.3,0.1,0.7,0.1,1c0,0.3,0,0.5,0,0.8c0,0.2-0.1,0.5-0.1,0.8h-1.6v-0.6c0-0.7-0.1-1.2-0.2-1.6
		c-0.2-0.3-0.4-0.5-0.7-0.5c-0.2,0-0.3,0-0.5,0.1s-0.2,0.2-0.3,0.4c-0.1,0.2-0.2,0.4-0.2,0.7c0,0.3-0.1,0.6-0.1,1v5.8
		c0,0.4,0,0.7,0.1,1c0,0.3,0.1,0.5,0.2,0.6c0.1,0.2,0.2,0.3,0.3,0.3c0.1,0.1,0.3,0.1,0.5,0.1c0.1,0,0.2,0,0.4-0.1s0.2-0.1,0.3-0.3
		c0.1-0.1,0.2-0.3,0.2-0.5c0.1-0.2,0.1-0.4,0.1-0.7v-1.2h1.8V68c0,1-0.2,1.8-0.7,2.3C109.7,70.8,109,71,108.1,71z"/>
</g>
<radialGradient id="SVGID_1_" cx="83.7" cy="45.7" r="41.0475" gradientTransform="matrix(1 0 0 -1 0 92)" gradientUnits="userSpaceOnUse">
	<stop  offset="0" style="stop-color:#70CB4D"/>
	<stop  offset="0.418" style="stop-color:#6FC94D"/>
	<stop  offset="0.5686" style="stop-color:#6AC24F"/>
	<stop  offset="0.6759" style="stop-color:#61B751"/>
	<stop  offset="0.7627" style="stop-color:#55A653"/>
	<stop  offset="0.837" style="stop-color:#459057"/>
	<stop  offset="0.9028" style="stop-color:#31745C"/>
	<stop  offset="0.9609" style="stop-color:#1B5561"/>
	<stop  offset="1" style="stop-color:#083B66"/>
</radialGradient>
<path class="st3" d="M83.7,5.3c-22.7,0-41,18.4-41,41s18.4,41,41,41s41-18.4,41-41S106.4,5.3,83.7,5.3z M88,82.1
	c-20,0-36.2-16.2-36.2-36.2S68,9.7,88,9.7s36.2,16.2,36.2,36.2S108,82.1,88,82.1z"/>
<radialGradient id="SVGID_2_" cx="60.6" cy="48.7" r="0" gradientTransform="matrix(1 0 0 -1 0 92)" gradientUnits="userSpaceOnUse">
	<stop  offset="0" style="stop-color:#F2AF58"/>
	<stop  offset="0.1311" style="stop-color:#F0AF58"/>
	<stop  offset="0.1784" style="stop-color:#E9B157"/>
	<stop  offset="0.212" style="stop-color:#DEB356"/>
	<stop  offset="0.2392" style="stop-color:#CDB755"/>
	<stop  offset="0.2626" style="stop-color:#B7BC53"/>
	<stop  offset="0.2832" style="stop-color:#9BC251"/>
	<stop  offset="0.3014" style="stop-color:#7CC84E"/>
	<stop  offset="0.3073" style="stop-color:#70CB4D"/>
	<stop  offset="0.4442" style="stop-color:#6FC94D"/>
	<stop  offset="0.4935" style="stop-color:#6AC24E"/>
	<stop  offset="0.5287" style="stop-color:#61B750"/>
	<stop  offset="0.5569" style="stop-color:#55A653"/>
	<stop  offset="0.581" style="stop-color:#469057"/>
	<stop  offset="0.5829" style="stop-color:#448E57"/>
	<stop  offset="0.922" style="stop-color:#083B66"/>
</radialGradient>
<polygon class="st4" points="60.6,43.3 60.6,43.3 60.6,43.3 "/>
<radialGradient id="SVGID_3_" cx="109.7" cy="50.7" r="0" gradientTransform="matrix(1 0 0 -1 0 92)" gradientUnits="userSpaceOnUse">
	<stop  offset="0" style="stop-color:#F2AF58"/>
	<stop  offset="0.1311" style="stop-color:#F0AF58"/>
	<stop  offset="0.1784" style="stop-color:#E9B157"/>
	<stop  offset="0.212" style="stop-color:#DEB356"/>
	<stop  offset="0.2392" style="stop-color:#CDB755"/>
	<stop  offset="0.2626" style="stop-color:#B7BC53"/>
	<stop  offset="0.2832" style="stop-color:#9BC251"/>
	<stop  offset="0.3014" style="stop-color:#7CC84E"/>
	<stop  offset="0.3073" style="stop-color:#70CB4D"/>
	<stop  offset="0.4442" style="stop-color:#6FC94D"/>
	<stop  offset="0.4935" style="stop-color:#6AC24E"/>
	<stop  offset="0.5287" style="stop-color:#61B750"/>
	<stop  offset="0.5569" style="stop-color:#55A653"/>
	<stop  offset="0.581" style="stop-color:#469057"/>
	<stop  offset="0.5829" style="stop-color:#448E57"/>
	<stop  offset="0.922" style="stop-color:#083B66"/>
</radialGradient>
<path class="st5" d="M109.7,41.3"/>
<g>
	
		<linearGradient id="SVGID_4_" gradientUnits="userSpaceOnUse" x1="70.1944" y1="41.6599" x2="91.1244" y2="63.8899" gradientTransform="matrix(1 0 0 -1 0 92)">
		<stop  offset="7.317073e-03" style="stop-color:#F2AF58"/>
		<stop  offset="0.1749" style="stop-color:#F0AF58"/>
		<stop  offset="0.2352" style="stop-color:#E9B157"/>
		<stop  offset="0.2782" style="stop-color:#DEB356"/>
		<stop  offset="0.313" style="stop-color:#CDB755"/>
		<stop  offset="0.3428" style="stop-color:#B7BC53"/>
		<stop  offset="0.3692" style="stop-color:#9BC251"/>
		<stop  offset="0.3925" style="stop-color:#7CC84E"/>
		<stop  offset="0.4" style="stop-color:#70CB4D"/>
		<stop  offset="0.6182" style="stop-color:#6FC94D"/>
		<stop  offset="0.6968" style="stop-color:#6AC24F"/>
		<stop  offset="0.7528" style="stop-color:#61B751"/>
		<stop  offset="0.7981" style="stop-color:#55A653"/>
		<stop  offset="0.8369" style="stop-color:#459057"/>
		<stop  offset="0.8712" style="stop-color:#31745C"/>
		<stop  offset="0.9015" style="stop-color:#1B5561"/>
		<stop  offset="0.922" style="stop-color:#083B66"/>
	</linearGradient>
	<polygon class="st6" points="88.5,30.9 87.1,35 85.2,34.4 86.6,30.3 	"/>
	
		<linearGradient id="SVGID_5_" gradientUnits="userSpaceOnUse" x1="66.5862" y1="45.0571" x2="87.5162" y2="67.2871" gradientTransform="matrix(1 0 0 -1 0 92)">
		<stop  offset="7.317073e-03" style="stop-color:#F2AF58"/>
		<stop  offset="0.1749" style="stop-color:#F0AF58"/>
		<stop  offset="0.2352" style="stop-color:#E9B157"/>
		<stop  offset="0.2782" style="stop-color:#DEB356"/>
		<stop  offset="0.313" style="stop-color:#CDB755"/>
		<stop  offset="0.3428" style="stop-color:#B7BC53"/>
		<stop  offset="0.3692" style="stop-color:#9BC251"/>
		<stop  offset="0.3925" style="stop-color:#7CC84E"/>
		<stop  offset="0.4" style="stop-color:#70CB4D"/>
		<stop  offset="0.6182" style="stop-color:#6FC94D"/>
		<stop  offset="0.6968" style="stop-color:#6AC24F"/>
		<stop  offset="0.7528" style="stop-color:#61B751"/>
		<stop  offset="0.7981" style="stop-color:#55A653"/>
		<stop  offset="0.8369" style="stop-color:#459057"/>
		<stop  offset="0.8712" style="stop-color:#31745C"/>
		<stop  offset="0.9015" style="stop-color:#1B5561"/>
		<stop  offset="0.922" style="stop-color:#083B66"/>
	</linearGradient>
	<path class="st7" d="M90.4,16.4c-2.9,0-5.3,2.4-5.3,5.3c0,2,1.1,3.7,2.8,4.6l-0.6,1.9l1.9,0.6l0.6-1.9c0.2,0,0.4,0,0.6,0
		c2.9,0,5.3-2.4,5.3-5.3S93.3,16.4,90.4,16.4z M90.4,24.8c-1.7,0-3.1-1.4-3.1-3.1s1.4-3.1,3.1-3.1s3.1,1.4,3.1,3.1
		S92.2,24.8,90.4,24.8z"/>
	
		<linearGradient id="SVGID_6_" gradientUnits="userSpaceOnUse" x1="86.6506" y1="26.166" x2="107.5806" y2="48.3959" gradientTransform="matrix(1 0 0 -1 0 92)">
		<stop  offset="7.317073e-03" style="stop-color:#F2AF58"/>
		<stop  offset="0.1749" style="stop-color:#F0AF58"/>
		<stop  offset="0.2352" style="stop-color:#E9B157"/>
		<stop  offset="0.2782" style="stop-color:#DEB356"/>
		<stop  offset="0.313" style="stop-color:#CDB755"/>
		<stop  offset="0.3428" style="stop-color:#B7BC53"/>
		<stop  offset="0.3692" style="stop-color:#9BC251"/>
		<stop  offset="0.3925" style="stop-color:#7CC84E"/>
		<stop  offset="0.4" style="stop-color:#70CB4D"/>
		<stop  offset="0.6182" style="stop-color:#6FC94D"/>
		<stop  offset="0.6968" style="stop-color:#6AC24F"/>
		<stop  offset="0.7528" style="stop-color:#61B751"/>
		<stop  offset="0.7981" style="stop-color:#55A653"/>
		<stop  offset="0.8369" style="stop-color:#459057"/>
		<stop  offset="0.8712" style="stop-color:#31745C"/>
		<stop  offset="0.9015" style="stop-color:#1B5561"/>
		<stop  offset="0.922" style="stop-color:#083B66"/>
	</linearGradient>
	<path class="st8" d="M109.7,31.8c-5.3,0-9.6,4.3-9.6,9.6c0,0.3,0,0.7,0.1,1L96,43.2l0.4,1.8l4.3-0.9c1.2,3.9,4.8,6.7,9.1,6.7
		c5.3,0,9.6-4.3,9.6-9.6S115,31.8,109.7,31.8z M109.7,48.5c-4,0-7.2-3.2-7.2-7.2s3.2-7.2,7.2-7.2s7.2,3.2,7.2,7.2
		C116.9,45.3,113.7,48.5,109.7,48.5z"/>
	
		<linearGradient id="SVGID_7_" gradientUnits="userSpaceOnUse" x1="74.9356" y1="37.1959" x2="95.8656" y2="59.4259" gradientTransform="matrix(1 0 0 -1 0 92)">
		<stop  offset="7.317073e-03" style="stop-color:#F2AF58"/>
		<stop  offset="0.1749" style="stop-color:#F0AF58"/>
		<stop  offset="0.2352" style="stop-color:#E9B157"/>
		<stop  offset="0.2782" style="stop-color:#DEB356"/>
		<stop  offset="0.313" style="stop-color:#CDB755"/>
		<stop  offset="0.3428" style="stop-color:#B7BC53"/>
		<stop  offset="0.3692" style="stop-color:#9BC251"/>
		<stop  offset="0.3925" style="stop-color:#7CC84E"/>
		<stop  offset="0.4" style="stop-color:#70CB4D"/>
		<stop  offset="0.6182" style="stop-color:#6FC94D"/>
		<stop  offset="0.6968" style="stop-color:#6AC24F"/>
		<stop  offset="0.7528" style="stop-color:#61B751"/>
		<stop  offset="0.7981" style="stop-color:#55A653"/>
		<stop  offset="0.8369" style="stop-color:#459057"/>
		<stop  offset="0.8712" style="stop-color:#31745C"/>
		<stop  offset="0.9015" style="stop-color:#1B5561"/>
		<stop  offset="0.922" style="stop-color:#083B66"/>
	</linearGradient>
	<path class="st9" d="M94,45.5l-0.4-1.8l-5,1.1c-0.6-1.7-1.9-3.1-3.5-4l1.2-3.6l-1.9-0.6l-1.2,3.6c-0.5-0.1-1-0.2-1.5-0.2
		c-4,0-7.3,3.3-7.3,7.3s3.3,7.3,7.3,7.3s7.3-3.3,7.3-7.3c0-0.2,0-0.5,0-0.7L94,45.5z M81.7,52.4c-2.9,0-5.3-2.4-5.3-5.3
		c0-2.9,2.4-5.3,5.3-5.3s5.3,2.4,5.3,5.3C87,50.1,84.6,52.4,81.7,52.4z"/>
</g>
<radialGradient id="SVGID_8_" cx="81.8" cy="44.8" r="0" gradientTransform="matrix(1 0 0 -1 0 92)" gradientUnits="userSpaceOnUse">
	<stop  offset="0" style="stop-color:#F2AF58"/>
	<stop  offset="0.1311" style="stop-color:#F0AF58"/>
	<stop  offset="0.1784" style="stop-color:#E9B157"/>
	<stop  offset="0.212" style="stop-color:#DEB356"/>
	<stop  offset="0.2392" style="stop-color:#CDB755"/>
	<stop  offset="0.2626" style="stop-color:#B7BC53"/>
	<stop  offset="0.2832" style="stop-color:#9BC251"/>
	<stop  offset="0.3014" style="stop-color:#7CC84E"/>
	<stop  offset="0.3073" style="stop-color:#70CB4D"/>
	<stop  offset="0.4442" style="stop-color:#6FC94D"/>
	<stop  offset="0.4935" style="stop-color:#6AC24E"/>
	<stop  offset="0.5287" style="stop-color:#61B750"/>
	<stop  offset="0.5569" style="stop-color:#55A653"/>
	<stop  offset="0.581" style="stop-color:#469057"/>
	<stop  offset="0.5829" style="stop-color:#448E57"/>
	<stop  offset="0.922" style="stop-color:#083B66"/>
</radialGradient>
<path class="st10" d="M81.8,47.2"/>
<radialGradient id="SVGID_9_" cx="82.3675" cy="45.2125" r="18.59" gradientTransform="matrix(1 0 0 -1 0 92)" gradientUnits="userSpaceOnUse">
	<stop  offset="0" style="stop-color:#F2AF58"/>
	<stop  offset="0.1311" style="stop-color:#F0AF58"/>
	<stop  offset="0.1784" style="stop-color:#E9B157"/>
	<stop  offset="0.212" style="stop-color:#DEB356"/>
	<stop  offset="0.2392" style="stop-color:#CDB755"/>
	<stop  offset="0.2626" style="stop-color:#B7BC53"/>
	<stop  offset="0.2832" style="stop-color:#9BC251"/>
	<stop  offset="0.3014" style="stop-color:#7CC84E"/>
	<stop  offset="0.3073" style="stop-color:#70CB4D"/>
	<stop  offset="0.4442" style="stop-color:#6FC94D"/>
	<stop  offset="0.4935" style="stop-color:#6AC24E"/>
	<stop  offset="0.5287" style="stop-color:#61B750"/>
	<stop  offset="0.5569" style="stop-color:#55A653"/>
	<stop  offset="0.581" style="stop-color:#469057"/>
	<stop  offset="0.5829" style="stop-color:#448E57"/>
	<stop  offset="0.922" style="stop-color:#083B66"/>
</radialGradient>
<polygon class="st11" points="73.8,46.8 71.1,46.4 71.2,45.3 73.9,45.6 "/>
<radialGradient id="SVGID_10_" cx="82.3675" cy="45.2125" r="18.59" gradientTransform="matrix(1 0 0 -1 0 92)" gradientUnits="userSpaceOnUse">
	<stop  offset="0" style="stop-color:#F2AF58"/>
	<stop  offset="0.1311" style="stop-color:#F0AF58"/>
	<stop  offset="0.1784" style="stop-color:#E9B157"/>
	<stop  offset="0.212" style="stop-color:#DEB356"/>
	<stop  offset="0.2392" style="stop-color:#CDB755"/>
	<stop  offset="0.2626" style="stop-color:#B7BC53"/>
	<stop  offset="0.2832" style="stop-color:#9BC251"/>
	<stop  offset="0.3014" style="stop-color:#7CC84E"/>
	<stop  offset="0.3073" style="stop-color:#70CB4D"/>
	<stop  offset="0.4442" style="stop-color:#6FC94D"/>
	<stop  offset="0.4935" style="stop-color:#6AC24E"/>
	<stop  offset="0.5287" style="stop-color:#61B750"/>
	<stop  offset="0.5569" style="stop-color:#55A653"/>
	<stop  offset="0.581" style="stop-color:#469057"/>
	<stop  offset="0.5829" style="stop-color:#448E57"/>
	<stop  offset="0.922" style="stop-color:#083B66"/>
</radialGradient>
<path class="st12" d="M69.8,45l-1.3-0.2c-0.1-1.7-1.5-3.1-3.3-3.1c-1.8,0-3.3,1.5-3.3,3.3s1.5,3.3,3.3,3.3c1.5,0,2.8-1,3.2-2.3
	l1.3,0.2L69.8,45z M65.2,47.1c-1.1,0-2-0.9-2-2s0.9-2,2-2s2,0.9,2,2C67.3,46.2,66.4,47.1,65.2,47.1z"/>
<radialGradient id="SVGID_11_" cx="82.3675" cy="45.2125" r="18.59" gradientTransform="matrix(1 0 0 -1 0 92)" gradientUnits="userSpaceOnUse">
	<stop  offset="0" style="stop-color:#F2AF58"/>
	<stop  offset="0.1311" style="stop-color:#F0AF58"/>
	<stop  offset="0.1784" style="stop-color:#E9B157"/>
	<stop  offset="0.212" style="stop-color:#DEB356"/>
	<stop  offset="0.2392" style="stop-color:#CDB755"/>
	<stop  offset="0.2626" style="stop-color:#B7BC53"/>
	<stop  offset="0.2832" style="stop-color:#9BC251"/>
	<stop  offset="0.3014" style="stop-color:#7CC84E"/>
	<stop  offset="0.3073" style="stop-color:#70CB4D"/>
	<stop  offset="0.4442" style="stop-color:#6FC94D"/>
	<stop  offset="0.4935" style="stop-color:#6AC24E"/>
	<stop  offset="0.5287" style="stop-color:#61B750"/>
	<stop  offset="0.5569" style="stop-color:#55A653"/>
	<stop  offset="0.581" style="stop-color:#469057"/>
	<stop  offset="0.5829" style="stop-color:#448E57"/>
	<stop  offset="0.922" style="stop-color:#083B66"/>
</radialGradient>
<path class="st13" d="M80.9,30.9c0-3.3-2.7-5.9-5.9-5.9c-3.3,0-5.9,2.7-5.9,5.9c0,3.3,2.7,5.9,5.9,5.9c0.6,0,1.1-0.1,1.7-0.2l1,2.4
	l1.1-0.5l-1-2.4C79.6,35.2,80.9,33.2,80.9,30.9z M74.9,35.5c-2.5,0-4.6-2.1-4.6-4.6s2.1-4.6,4.6-4.6s4.6,2.1,4.6,4.6
	S77.5,35.5,74.9,35.5z"/>
<radialGradient id="SVGID_12_" cx="82.3675" cy="45.2125" r="18.59" gradientTransform="matrix(1 0 0 -1 0 92)" gradientUnits="userSpaceOnUse">
	<stop  offset="0" style="stop-color:#F2AF58"/>
	<stop  offset="0.1311" style="stop-color:#F0AF58"/>
	<stop  offset="0.1784" style="stop-color:#E9B157"/>
	<stop  offset="0.212" style="stop-color:#DEB356"/>
	<stop  offset="0.2392" style="stop-color:#CDB755"/>
	<stop  offset="0.2626" style="stop-color:#B7BC53"/>
	<stop  offset="0.2832" style="stop-color:#9BC251"/>
	<stop  offset="0.3014" style="stop-color:#7CC84E"/>
	<stop  offset="0.3073" style="stop-color:#70CB4D"/>
	<stop  offset="0.4442" style="stop-color:#6FC94D"/>
	<stop  offset="0.4935" style="stop-color:#6AC24E"/>
	<stop  offset="0.5287" style="stop-color:#61B750"/>
	<stop  offset="0.5569" style="stop-color:#55A653"/>
	<stop  offset="0.581" style="stop-color:#469057"/>
	<stop  offset="0.5829" style="stop-color:#448E57"/>
	<stop  offset="0.922" style="stop-color:#083B66"/>
</radialGradient>
<path class="st14" d="M81.8,42.7c-0.4,0-0.8,0.1-1.2,0.2l-1.3-3l-1.1,0.5l1.3,3c-1,0.6-1.8,1.6-2.1,2.8l-2.1-0.3L75.2,47l2.1,0.3
	c0,2.5,2.1,4.6,4.6,4.6s4.6-2.1,4.6-4.6C86.4,44.7,84.4,42.7,81.8,42.7z M81.8,50.7c-1.8,0-3.3-1.5-3.3-3.3s1.5-3.3,3.3-3.3
	s3.3,1.5,3.3,3.3C85.1,49.2,83.7,50.7,81.8,50.7z"/>
</svg>
