<?xml version="1.0" encoding="utf-8"?>
<!-- Generator: Adobe Illustrator 22.0.1, SVG Export Plug-In . SVG Version: 6.00 Build 0)  -->
<svg version="1.1" id="Capa_1" xmlns="http://www.w3.org/2000/svg" xmlns:xlink="http://www.w3.org/1999/xlink" x="0px" y="0px"
	 width="1317.3px" height="510px" viewBox="0 0 1317.3 510" enable-background="new 0 0 1317.3 510" xml:space="preserve">
<g>
	<path fill="#083B66" d="M186.5,320.4h12.9l6.2,25.2c0.7,2.8,1.2,5.5,1.6,8c0.4,2.5,0.7,4.9,1.1,7.1h0.3c0.4-2.2,0.7-4.6,1.1-7.1
		c0.4-2.5,0.9-5.2,1.6-8l6.4-25.2h12.6v65.1h-9.2V364c0-3.3,0-6.5,0.1-9.5c0.1-3,0.1-5.8,0.2-8.4c0.1-2.6,0.2-4.8,0.3-6.8
		c0.1-2,0.2-3.5,0.3-4.6h-0.7l-9.8,42.5h-6.2l-9.9-42.5h-0.7c0.1,1.1,0.2,2.7,0.3,4.6c0.1,2,0.2,4.2,0.3,6.8
		c0.1,2.6,0.2,5.4,0.2,8.4c0.1,3,0.1,6.2,0.1,9.5v21.5h-9.2V320.4z"/>
	<path fill="#083B66" d="M238.9,372.3c0-1.4,0.1-2.7,0.2-3.9c0.2-1.2,0.4-2.5,0.7-3.8h7.7v3.2c0,1.8,0.1,3.3,0.3,4.6
		c0.2,1.3,0.6,2.5,1.1,3.4s1.2,1.6,2,2.1c0.8,0.5,1.8,0.7,3,0.7c1.9,0,3.3-0.5,4.3-1.5c1-1,1.5-2.5,1.5-4.5c0-1-0.1-1.9-0.2-2.8
		c-0.1-0.9-0.4-1.7-0.7-2.5s-0.8-1.7-1.4-2.6c-0.6-0.9-1.3-2-2.2-3.1l-10.3-12.2c-1.8-2.3-3.2-4.7-4.2-7.1c-1-2.4-1.5-4.9-1.5-7.6
		c0-2.2,0.3-4.1,1-5.9c0.7-1.8,1.6-3.4,2.9-4.7c1.3-1.3,2.8-2.3,4.7-3s4-1.1,6.3-1.1c2.9,0,5.3,0.4,7.2,1.2c1.9,0.8,3.4,1.9,4.6,3.2
		s1.9,2.8,2.4,4.4c0.5,1.6,0.7,3.3,0.7,4.9c0,1.4-0.1,2.7-0.3,3.9c-0.2,1.2-0.5,2.5-0.7,3.9h-7.6v-3.1c0-3.5-0.5-6.1-1.5-7.9
		c-1-1.8-2.6-2.8-4.8-2.8c-1.9,0-3.2,0.5-4.2,1.5c-0.9,1-1.4,2.4-1.4,4.1c0,0.9,0.1,1.7,0.2,2.5c0.1,0.7,0.3,1.4,0.6,2
		c0.3,0.6,0.6,1.2,1,1.8c0.4,0.6,0.8,1.2,1.3,1.8l11.5,13.9c2.1,2.7,3.7,5.3,4.8,7.8c1.1,2.5,1.7,5.1,1.7,7.9c0,2.3-0.4,4.4-1.1,6.2
		c-0.7,1.9-1.8,3.4-3.1,4.7c-1.3,1.3-3,2.3-4.9,3c-1.9,0.7-4.1,1-6.4,1c-2.9,0-5.4-0.4-7.3-1.2s-3.5-1.8-4.6-3.1
		c-1.2-1.3-2-2.8-2.4-4.4C239.2,375.7,238.9,374,238.9,372.3z"/>
	<path fill="#083B66" d="M292.3,386.1c-1,0-2.2-0.1-3.4-0.2c-1.2-0.2-2.4-0.5-3.6-1c-1.2-0.5-2.3-1.3-3.4-2.3
		c-1.1-1-2.1-2.3-2.9-3.9c-0.9-1.6-1.5-3.6-2-5.9c-0.5-2.3-0.8-5.1-0.8-8.4v-23c0-3.3,0.3-6.1,0.8-8.4c0.5-2.3,1.2-4.3,2.1-5.9
		c0.9-1.6,1.8-2.8,3-3.8s2.3-1.7,3.5-2.2c1.2-0.5,2.4-0.8,3.6-1c1.2-0.2,2.3-0.2,3.3-0.2c1,0,2,0.1,3.2,0.2c1.2,0.1,2.4,0.4,3.5,0.9
		c1.2,0.5,2.3,1.2,3.4,2.1c1.1,0.9,2.1,2.2,3,3.8c0.9,1.6,1.6,3.6,2.1,5.9c0.5,2.3,0.8,5.2,0.8,8.5v23c0,3.2-0.3,6-0.8,8.3
		c-0.5,2.3-1.2,4.3-2.1,5.9c-0.9,1.6-1.9,2.9-3,3.9c-1.1,1-2.3,1.7-3.5,2.3c-1.2,0.5-2.4,0.9-3.5,1.1
		C294.3,386,293.2,386.1,292.3,386.1z M292.3,378.6c1,0,1.8-0.2,2.5-0.5s1.3-0.9,1.8-1.7c0.5-0.8,0.8-1.9,1.1-3.2
		c0.2-1.3,0.4-3,0.4-5v-29.6c0-2.1-0.1-3.8-0.4-5.2c-0.2-1.4-0.6-2.5-1.1-3.4c-0.5-0.8-1.1-1.5-1.8-1.8s-1.6-0.5-2.5-0.5
		c-1,0-1.9,0.2-2.6,0.5c-0.7,0.4-1.3,1-1.8,1.8c-0.5,0.9-0.8,2-1.1,3.4c-0.2,1.4-0.4,3.1-0.4,5.2v29.6c0,2,0.1,3.7,0.4,5
		c0.2,1.3,0.6,2.4,1.1,3.2c0.5,0.8,1.1,1.4,1.8,1.7C290.4,378.5,291.3,378.6,292.3,378.6z"/>
	<path fill="#083B66" d="M315.2,368.7l19-48.2h11.8v45.7h6v7.7h-6v11.7h-9.2v-11.7h-21.6V368.7z M336.7,366.1v-9.6l0.9-24.5h-1.1
		l-11.3,34.1H336.7z"/>
	<path fill="#083B66" d="M357,372.3c0-1.4,0.1-2.7,0.2-3.9c0.2-1.2,0.4-2.5,0.7-3.8h7.7v3.2c0,1.8,0.1,3.3,0.3,4.6
		c0.2,1.3,0.6,2.5,1.1,3.4s1.2,1.6,2,2.1c0.8,0.5,1.8,0.7,3,0.7c1.9,0,3.3-0.5,4.3-1.5c1-1,1.5-2.5,1.5-4.5c0-1-0.1-1.9-0.2-2.8
		c-0.1-0.9-0.4-1.7-0.7-2.5s-0.8-1.7-1.4-2.6c-0.6-0.9-1.3-2-2.2-3.1L363,349.3c-1.8-2.3-3.2-4.7-4.2-7.1c-1-2.4-1.5-4.9-1.5-7.6
		c0-2.2,0.3-4.1,1-5.9c0.7-1.8,1.6-3.4,2.9-4.7c1.3-1.3,2.8-2.3,4.7-3s4-1.1,6.3-1.1c2.9,0,5.3,0.4,7.2,1.2c1.9,0.8,3.4,1.9,4.6,3.2
		s1.9,2.8,2.4,4.4c0.5,1.6,0.7,3.3,0.7,4.9c0,1.4-0.1,2.7-0.3,3.9c-0.2,1.2-0.5,2.5-0.7,3.9h-7.6v-3.1c0-3.5-0.5-6.1-1.5-7.9
		c-1-1.8-2.6-2.8-4.8-2.8c-1.9,0-3.2,0.5-4.2,1.5c-0.9,1-1.4,2.4-1.4,4.1c0,0.9,0.1,1.7,0.2,2.5c0.1,0.7,0.3,1.4,0.6,2
		c0.3,0.6,0.6,1.2,1,1.8c0.4,0.6,0.8,1.2,1.3,1.8l11.5,13.9c2.1,2.7,3.7,5.3,4.8,7.8c1.1,2.5,1.7,5.1,1.7,7.9c0,2.3-0.4,4.4-1.1,6.2
		c-0.7,1.9-1.8,3.4-3.1,4.7c-1.3,1.3-3,2.3-4.9,3c-1.9,0.7-4.1,1-6.4,1c-2.9,0-5.4-0.4-7.3-1.2s-3.5-1.8-4.6-3.1
		c-1.2-1.3-2-2.8-2.4-4.4C357.3,375.7,357,374,357,372.3z"/>
	<path fill="#083B66" d="M410,386.1c-1,0-2.1-0.1-3.3-0.2c-1.2-0.2-2.4-0.5-3.5-1c-1.2-0.5-2.3-1.3-3.4-2.3c-1.1-1-2-2.3-2.9-3.9
		c-0.8-1.6-1.5-3.6-2-5.9c-0.5-2.3-0.7-5.1-0.7-8.4v-23c0-3.3,0.3-6.1,0.8-8.4c0.5-2.3,1.2-4.3,2-5.9c0.8-1.6,1.8-2.8,2.9-3.8
		s2.2-1.7,3.4-2.2s2.3-0.8,3.5-1c1.2-0.2,2.2-0.2,3.2-0.2c2.6,0,4.8,0.4,6.5,1.1c1.7,0.7,3.1,1.7,4.2,3c1.1,1.3,1.8,2.7,2.2,4.4
		c0.4,1.7,0.7,3.5,0.7,5.3c0,1.4-0.1,2.7-0.2,3.9c-0.1,1.2-0.3,2.5-0.6,3.9h-8v-3.3c0-3.6-0.4-6.3-1.2-8s-1.9-2.7-3.5-2.7
		c-0.9,0-1.7,0.2-2.4,0.5s-1.3,1-1.7,1.8c-0.5,0.9-0.8,2-1,3.4c-0.2,1.4-0.4,3.1-0.4,5.2V368c0,2,0.1,3.7,0.3,5.1
		c0.2,1.3,0.5,2.4,0.9,3.2s1,1.4,1.7,1.7c0.7,0.3,1.5,0.5,2.5,0.5c0.6,0,1.2-0.1,1.8-0.4c0.6-0.3,1.1-0.7,1.5-1.4
		c0.4-0.6,0.8-1.4,1.1-2.4c0.3-1,0.4-2.1,0.4-3.4v-6.4h9v6c0,5.2-1.2,9.1-3.6,11.6S414.4,386,410,386.1z"/>
</g>
<g>
	<path fill="#083B66" d="M284.6,48.8c-116.3,0-210.5,94.2-210.5,210.5s94.2,210.5,210.5,210.5s210.5-94.2,210.5-210.5
		S400.9,48.8,284.6,48.8z M306.6,442.8c-102.4,0-185.5-83.1-185.5-185.5S204.2,71.8,306.6,71.8s185.5,83.1,185.5,185.5
		S409.1,442.8,306.6,442.8z"/>
</g>
<g>
	
		<rect x="224.1" y="250.9" transform="matrix(0.1283 -0.9917 0.9917 0.1283 -57.78 450.0181)" fill="#083B66" width="6" height="13.9"/>
</g>
<g>
	<path fill="#083B66" d="M213.6,252.7l-6.7-0.9c-0.5-8.9-7.9-16-16.9-16c-9.4,0-17,7.6-17,17s7.6,17,17,17c7.7,0,14.1-5.1,16.3-12
		l6.6,0.9L213.6,252.7z M189.9,263.3c-5.8,0-10.5-4.7-10.5-10.5c0-5.8,4.7-10.5,10.5-10.5s10.5,4.7,10.5,10.5
		C200.4,258.6,195.7,263.3,189.9,263.3z"/>
</g>
<g>
	<path fill="#083B66" d="M270.1,180.3c0-16.8-13.7-30.5-30.5-30.5s-30.5,13.7-30.5,30.5c0,16.8,13.7,30.5,30.5,30.5
		c3,0,5.8-0.4,8.5-1.2l5.3,12.4l5.5-2.4l-5.2-12.2C263.5,202.3,270.1,192.1,270.1,180.3z M239.6,203.8c-13,0-23.5-10.5-23.5-23.5
		s10.5-23.5,23.5-23.5s23.5,10.5,23.5,23.5S252.6,203.8,239.6,203.8z"/>
</g>
<g>
	<path fill="#083B66" d="M275,240.8c-2.2,0-4.3,0.3-6.3,0.9l-6.6-15.4l-5.5,2.4l6.6,15.4c-5.3,3.1-9.3,8.2-10.9,14.4l-10.7-1.4
		l-0.8,6l10.7,1.4c0,13,10.5,23.5,23.5,23.5c13,0,23.5-10.5,23.5-23.5S288,240.8,275,240.8z M275,281.8c-9.4,0-17-7.6-17-17
		s7.6-17,17-17s17,7.6,17,17S284.4,281.8,275,281.8z"/>
</g>
<g>
	
		<rect x="289.7" y="184.2" transform="matrix(0.3184 -0.948 0.948 0.3184 25.4936 414.203)" fill="#083B66" width="22.1" height="10.3"/>
</g>
<g>
	<path fill="#083B66" d="M319.1,105.8c-14.9,0-27,12.1-27,27c0,10.3,5.7,19.2,14.1,23.7l-3.2,9.6l9.8,3.3l3.3-9.8c1,0.1,2,0.2,3,0.2
		c14.9,0,27-12.1,27-27S334.1,105.8,319.1,105.8z M319.1,148.8c-8.8,0-16-7.2-16-16s7.2-16,16-16s16,7.2,16,16
		S328,148.8,319.1,148.8z"/>
</g>
<g>
	<path fill="#083B66" d="M418.1,184.8c-27.1,0-49,21.9-49,49c0,1.7,0.1,3.4,0.3,5.1l-21.9,4.6l2,9.4l21.9-4.6
		c6.2,20,24.8,34.6,46.8,34.6c27.1,0,49-21.9,49-49S445.2,184.8,418.1,184.8z M418.1,270.8c-20.4,0-37-16.6-37-37
		c0-20.4,16.6-37,37-37s37,16.6,37,37C455.1,254.3,438.6,270.8,418.1,270.8z"/>
</g>
<g>
	<path fill="#083B66" d="M337.4,255.4l-2-9.4l-25.9,5.4c-3.2-8.7-9.6-16-17.7-20.3l6.3-18.6l-9.8-3.3l-6.2,18.4
		c-2.5-0.5-5.1-0.8-7.8-0.8c-20.7,0-37.5,16.8-37.5,37.5s16.8,37.5,37.5,37.5s37.5-16.8,37.5-37.5c0-1.2-0.1-2.4-0.2-3.5
		L337.4,255.4z M274.4,290.8c-14.9,0-27-12.1-27-27s12.1-27,27-27s27,12.1,27,27S289.3,290.8,274.4,290.8z"/>
</g>
<g>
	<path fill="#2A3133" d="M639.8,301.6l-31.5-82.3h-0.5c0.6,6.5,0.9,14.3,0.9,23.2v59h-10v-92.8H615l29.4,76.6h0.5l29.6-76.6h16.1
		v92.8h-10.8v-59.8c0-6.9,0.3-14.3,0.9-22.3h-0.5l-31.7,82.1H639.8z"/>
	<path fill="#2A3133" d="M768.5,276.9c0,8.2-3,14.5-8.9,19.1c-5.9,4.6-14,6.9-24.1,6.9c-11,0-19.5-1.4-25.4-4.3v-10.4
		c3.8,1.6,8,2.9,12.4,3.8c4.5,0.9,8.9,1.4,13.3,1.4c7.2,0,12.6-1.4,16.3-4.1c3.6-2.7,5.5-6.5,5.5-11.4c0-3.2-0.6-5.8-1.9-7.9
		c-1.3-2.1-3.5-3.9-6.5-5.7c-3-1.7-7.6-3.7-13.8-5.9c-8.6-3.1-14.8-6.7-18.5-11c-3.7-4.2-5.6-9.8-5.6-16.6c0-7.2,2.7-12.8,8.1-17.1
		c5.4-4.2,12.5-6.3,21.3-6.3c9.2,0,17.7,1.7,25.5,5.1l-3.4,9.4c-7.7-3.2-15.1-4.8-22.3-4.8c-5.7,0-10.2,1.2-13.4,3.7
		c-3.2,2.5-4.8,5.9-4.8,10.2c0,3.2,0.6,5.9,1.8,7.9c1.2,2.1,3.2,3.9,6,5.6c2.8,1.7,7.1,3.6,12.9,5.7c9.7,3.5,16.4,7.2,20.1,11.2
		C766.7,265.4,768.5,270.6,768.5,276.9z"/>
	<path fill="#2A3133" d="M868,255.1c0,14.9-3.8,26.5-11.3,35s-18,12.8-31.3,12.8c-13.7,0-24.2-4.2-31.6-12.5
		c-7.4-8.4-11.1-20.2-11.1-35.4c0-15.1,3.7-26.8,11.2-35.1c7.4-8.3,18-12.5,31.7-12.5c13.3,0,23.7,4.2,31.2,12.7
		C864.3,228.5,868,240.2,868,255.1z M794.1,255.1c0,12.6,2.7,22.1,8,28.6c5.4,6.5,13.1,9.7,23.3,9.7c10.3,0,18-3.2,23.3-9.7
		c5.2-6.5,7.9-16,7.9-28.6c0-12.5-2.6-22-7.8-28.4c-5.2-6.5-13-9.7-23.2-9.7c-10.3,0-18.1,3.2-23.5,9.7
		C796.7,233.3,794.1,242.7,794.1,255.1z"/>
	<path fill="#2A3133" d="M947.6,235.9c0,9.4-3.2,16.6-9.6,21.7c-6.4,5.1-15.6,7.6-27.5,7.6h-10.9v36.5h-10.8v-92.8h24.1
		C936,208.8,947.6,217.8,947.6,235.9z M899.5,255.9h9.7c9.6,0,16.5-1.5,20.8-4.6c4.3-3.1,6.4-8,6.4-14.9c0-6.1-2-10.7-6-13.7
		c-4-3-10.3-4.5-18.8-4.5h-12.1V255.9z"/>
	<path fill="#2A3133" d="M1025.4,266.8c0,11.3-2.9,20.2-8.6,26.6c-5.7,6.4-13.6,9.6-23.7,9.6c-6.2,0-11.7-1.5-16.6-4.4
		s-8.5-7.1-11.2-12.6c-2.6-5.5-3.9-11.8-3.9-19.2c0-11.3,2.8-20.2,8.5-26.5c5.7-6.3,13.5-9.5,23.6-9.5c9.7,0,17.5,3.2,23.2,9.7
		S1025.4,255.7,1025.4,266.8z M972.4,266.8c0,8.9,1.8,15.7,5.3,20.3c3.6,4.7,8.8,7,15.7,7c6.9,0,12.1-2.3,15.7-7
		c3.6-4.6,5.4-11.4,5.4-20.3c0-8.8-1.8-15.6-5.4-20.2c-3.6-4.6-8.9-6.9-15.8-6.9c-6.9,0-12.1,2.3-15.6,6.8
		C974.2,251.1,972.4,257.8,972.4,266.8z"/>
	<path fill="#2A3133" d="M1075.6,230.8c3.1,0,5.9,0.3,8.3,0.8l-1.5,9.8c-2.9-0.6-5.4-1-7.6-1c-5.6,0-10.4,2.3-14.4,6.9
		c-4,4.6-6,10.3-6,17.1v37.3h-10.5v-69.6h8.7l1.2,12.9h0.5c2.6-4.5,5.7-8,9.3-10.5C1067.3,232,1071.3,230.8,1075.6,230.8z"/>
	<path fill="#2A3133" d="M1119.4,294.2c1.9,0,3.7-0.1,5.4-0.4c1.7-0.3,3.1-0.6,4.1-0.9v8.1c-1.1,0.6-2.8,1-5,1.4
		c-2.2,0.4-4.2,0.5-6,0.5c-13.5,0-20.2-7.1-20.2-21.3v-41.4h-10v-5.1l10-4.4l4.4-14.9h6.1v16.1h20.2v8.2h-20.2v40.9
		c0,4.2,1,7.4,3,9.6C1113.2,293.1,1116,294.2,1119.4,294.2z"/>
	<path fill="#2A3133" d="M1185.7,301.6l-2.1-9.9h-0.5c-3.5,4.4-6.9,7.3-10.4,8.9c-3.5,1.5-7.8,2.3-12.9,2.3
		c-6.9,0-12.3-1.8-16.2-5.3s-5.9-8.6-5.9-15.2c0-14,11.2-21.4,33.7-22.1l11.8-0.4v-4.3c0-5.5-1.2-9.5-3.5-12.1
		c-2.3-2.6-6.1-3.9-11.3-3.9c-5.8,0-12.4,1.8-19.7,5.3l-3.2-8.1c3.4-1.9,7.2-3.3,11.3-4.4c4.1-1.1,8.2-1.6,12.3-1.6
		c8.3,0,14.4,1.8,18.4,5.5c4,3.7,6,9.6,6,17.7v47.5H1185.7z M1161.8,294.2c6.6,0,11.7-1.8,15.5-5.4c3.7-3.6,5.6-8.6,5.6-15.1v-6.3
		l-10.5,0.4c-8.4,0.3-14.4,1.6-18.1,3.9c-3.7,2.3-5.6,5.9-5.6,10.8c0,3.8,1.2,6.7,3.5,8.7C1154.5,293.2,1157.7,294.2,1161.8,294.2z"
		/>
	<path fill="#2A3133" d="M1225.7,301.6h-10.5v-98.8h10.5V301.6z"/>
</g>
</svg>
