<?xml version="1.0" encoding="utf-8"?>
<!-- Generator: Adobe Illustrator 22.0.1, SVG Export Plug-In . SVG Version: 6.00 Build 0)  -->
<svg version="1.1" id="Capa_1" xmlns="http://www.w3.org/2000/svg" xmlns:xlink="http://www.w3.org/1999/xlink" x="0px" y="0px"
	 width="736.4px" height="90.5px" viewBox="0 0 736.4 90.5" style="enable-background:new 0 0 736.4 90.5;" xml:space="preserve">
<style type="text/css">
	.st0{fill:#083B66;}
	.st1{fill:#2A3133;}
</style>
<g>
	<path class="st0" d="M64.2,57.4h2.5l1.2,4.9c0.1,0.5,0.2,1.1,0.3,1.6c0.1,0.5,0.1,1,0.2,1.4h0.1c0.1-0.4,0.1-0.9,0.2-1.4
		c0.1-0.5,0.2-1,0.3-1.6l1.2-4.9h2.4v12.7H71v-4.2c0-0.6,0-1.3,0-1.8c0-0.6,0-1.1,0-1.6c0-0.5,0-0.9,0.1-1.3c0-0.4,0-0.7,0.1-0.9H71
		l-1.9,8.3h-1.2L66,60.2h-0.1c0,0.2,0,0.5,0.1,0.9c0,0.4,0,0.8,0.1,1.3c0,0.5,0,1,0,1.6c0,0.6,0,1.2,0,1.8v4.2h-1.8L64.2,57.4
		L64.2,57.4z"/>
	<path class="st0" d="M74.4,67.5c0-0.3,0-0.5,0-0.8c0-0.2,0.1-0.5,0.1-0.7h1.5v0.6c0,0.3,0,0.6,0.1,0.9c0,0.3,0.1,0.5,0.2,0.7
		s0.2,0.3,0.4,0.4c0.2,0.1,0.3,0.1,0.6,0.1c0.4,0,0.6-0.1,0.8-0.3c0.2-0.2,0.3-0.5,0.3-0.9c0-0.2,0-0.4,0-0.5c0-0.2-0.1-0.3-0.1-0.5
		S78.1,66.2,78,66c-0.1-0.2-0.3-0.4-0.4-0.6l-2-2.4c-0.3-0.4-0.6-0.9-0.8-1.4c-0.2-0.5-0.3-1-0.3-1.5c0-0.4,0.1-0.8,0.2-1.1
		s0.3-0.7,0.6-0.9c0.3-0.3,0.5-0.4,0.9-0.6c0.4-0.1,0.8-0.2,1.2-0.2c0.6,0,1,0.1,1.4,0.2c0.4,0.2,0.7,0.4,0.9,0.6s0.4,0.5,0.5,0.9
		c0.1,0.3,0.1,0.6,0.1,1c0,0.3,0,0.5-0.1,0.8c0,0.2-0.1,0.5-0.1,0.8h-1.5v-0.6c0-0.7-0.1-1.2-0.3-1.5c-0.2-0.3-0.5-0.5-0.9-0.5
		c-0.4,0-0.6,0.1-0.8,0.3c-0.2,0.2-0.3,0.5-0.3,0.8c0,0.2,0,0.3,0,0.5c0,0.1,0.1,0.3,0.1,0.4c0.1,0.1,0.1,0.2,0.2,0.3
		c0.1,0.1,0.2,0.2,0.3,0.3l2.2,2.7c0.4,0.5,0.7,1,0.9,1.5s0.3,1,0.3,1.5c0,0.4-0.1,0.9-0.2,1.2c-0.1,0.4-0.3,0.7-0.6,0.9
		c-0.3,0.3-0.6,0.4-1,0.6c-0.4,0.1-0.8,0.2-1.2,0.2c-0.6,0-1-0.1-1.4-0.2c-0.4-0.2-0.7-0.3-0.9-0.6c-0.2-0.3-0.4-0.5-0.5-0.9
		C74.5,68.2,74.4,67.8,74.4,67.5z"/>
	<path class="st0" d="M84.8,70.2c-0.2,0-0.4,0-0.7,0c-0.2,0-0.5-0.1-0.7-0.2c-0.2-0.1-0.4-0.3-0.7-0.4c-0.2-0.2-0.4-0.4-0.6-0.8
		c-0.2-0.3-0.3-0.7-0.4-1.1c-0.1-0.4-0.2-1-0.2-1.6v-4.5c0-0.6,0.1-1.2,0.2-1.6c0.1-0.4,0.2-0.8,0.4-1.1c0.2-0.3,0.3-0.5,0.6-0.7
		c0.2-0.2,0.4-0.3,0.7-0.4c0.2-0.1,0.5-0.2,0.7-0.2c0.2,0,0.4,0,0.6,0c0.2,0,0.4,0,0.6,0c0.2,0,0.5,0.1,0.7,0.2
		c0.2,0.1,0.4,0.2,0.7,0.4c0.2,0.2,0.4,0.4,0.6,0.7c0.2,0.3,0.3,0.7,0.4,1.1c0.1,0.4,0.2,1,0.2,1.7v4.5c0,0.6-0.1,1.2-0.2,1.6
		c-0.1,0.4-0.2,0.8-0.4,1.1c-0.2,0.3-0.4,0.6-0.6,0.8c-0.2,0.2-0.4,0.3-0.7,0.4c-0.2,0.1-0.5,0.2-0.7,0.2
		C85.2,70.2,85,70.2,84.8,70.2z M84.8,68.7c0.2,0,0.3,0,0.5-0.1c0.1-0.1,0.3-0.2,0.3-0.3c0.1-0.2,0.2-0.4,0.2-0.6
		c0-0.3,0.1-0.6,0.1-1v-5.8c0-0.4,0-0.7-0.1-1c0-0.3-0.1-0.5-0.2-0.7c-0.1-0.2-0.2-0.3-0.3-0.3s-0.3-0.1-0.5-0.1
		c-0.2,0-0.4,0-0.5,0.1c-0.1,0.1-0.3,0.2-0.3,0.3c-0.1,0.2-0.2,0.4-0.2,0.7c0,0.3-0.1,0.6-0.1,1v5.8c0,0.4,0,0.7,0.1,1
		c0,0.3,0.1,0.5,0.2,0.6c0.1,0.2,0.2,0.3,0.3,0.3C84.4,68.7,84.6,68.7,84.8,68.7z"/>
	<path class="st0" d="M89.3,66.8l3.7-9.4h2.3v8.9h1.2v1.5h-1.2v2.3h-1.8v-2.3h-4.2L89.3,66.8L89.3,66.8z M93.4,66.3v-1.9l0.2-4.8
		h-0.2l-2.2,6.6H93.4z"/>
	<path class="st0" d="M97.4,67.5c0-0.3,0-0.5,0-0.8c0-0.2,0.1-0.5,0.1-0.7h1.5v0.6c0,0.3,0,0.6,0.1,0.9c0,0.3,0.1,0.5,0.2,0.7
		s0.2,0.3,0.4,0.4s0.3,0.1,0.6,0.1c0.4,0,0.6-0.1,0.8-0.3c0.2-0.2,0.3-0.5,0.3-0.9c0-0.2,0-0.4,0-0.5c0-0.2-0.1-0.3-0.1-0.5
		c-0.1-0.2-0.2-0.3-0.3-0.5c-0.1-0.2-0.3-0.4-0.4-0.6l-2-2.4c-0.3-0.4-0.6-0.9-0.8-1.4c-0.2-0.5-0.3-1-0.3-1.5
		c0-0.4,0.1-0.8,0.2-1.1c0.1-0.3,0.3-0.7,0.6-0.9c0.3-0.3,0.5-0.4,0.9-0.6c0.4-0.1,0.8-0.2,1.2-0.2c0.6,0,1,0.1,1.4,0.2
		c0.4,0.2,0.7,0.4,0.9,0.6s0.4,0.5,0.5,0.9c0.1,0.3,0.1,0.6,0.1,1c0,0.3,0,0.5-0.1,0.8c0,0.2-0.1,0.5-0.1,0.8h-1.5v-0.6
		c0-0.7-0.1-1.2-0.3-1.5s-0.5-0.5-0.9-0.5c-0.4,0-0.6,0.1-0.8,0.3c-0.2,0.2-0.3,0.5-0.3,0.8c0,0.2,0,0.3,0,0.5
		c0,0.1,0.1,0.3,0.1,0.4c0.1,0.1,0.1,0.2,0.2,0.3c0.1,0.1,0.2,0.2,0.3,0.3l2.2,2.7c0.4,0.5,0.7,1,0.9,1.5s0.3,1,0.3,1.5
		c0,0.4-0.1,0.9-0.2,1.2c-0.1,0.4-0.3,0.7-0.6,0.9c-0.3,0.3-0.6,0.4-1,0.6c-0.4,0.1-0.8,0.2-1.2,0.2c-0.6,0-1-0.1-1.4-0.2
		c-0.4-0.2-0.7-0.3-0.9-0.6c-0.2-0.3-0.4-0.5-0.5-0.9C97.4,68.2,97.4,67.8,97.4,67.5z"/>
	<path class="st0" d="M107.7,70.2c-0.2,0-0.4,0-0.6,0c-0.2,0-0.5-0.1-0.7-0.2c-0.2-0.1-0.4-0.3-0.7-0.4c-0.2-0.2-0.4-0.4-0.6-0.8
		c-0.2-0.3-0.3-0.7-0.4-1.1c-0.1-0.4-0.1-1-0.1-1.6v-4.5c0-0.6,0.1-1.2,0.2-1.6s0.2-0.8,0.4-1.1c0.2-0.3,0.3-0.5,0.6-0.7
		c0.2-0.2,0.4-0.3,0.7-0.4c0.2-0.1,0.4-0.2,0.7-0.2c0.2,0,0.4,0,0.6,0c0.5,0,0.9,0.1,1.3,0.2s0.6,0.3,0.8,0.6
		c0.2,0.3,0.3,0.5,0.4,0.9c0.1,0.3,0.1,0.7,0.1,1c0,0.3,0,0.5,0,0.8c0,0.2-0.1,0.5-0.1,0.8h-1.6v-0.6c0-0.7-0.1-1.2-0.2-1.6
		s-0.4-0.5-0.7-0.5c-0.2,0-0.3,0-0.5,0.1c-0.1,0.1-0.3,0.2-0.3,0.3c-0.1,0.2-0.2,0.4-0.2,0.7c0,0.3-0.1,0.6-0.1,1v5.8
		c0,0.4,0,0.7,0.1,1c0,0.3,0.1,0.5,0.2,0.6s0.2,0.3,0.3,0.3c0.1,0.1,0.3,0.1,0.5,0.1c0.1,0,0.2,0,0.3-0.1s0.2-0.1,0.3-0.3
		c0.1-0.1,0.2-0.3,0.2-0.5c0.1-0.2,0.1-0.4,0.1-0.7V66h1.7v1.2c0,1-0.2,1.8-0.7,2.3S108.5,70.2,107.7,70.2z"/>
</g>
<g>
	<path class="st0" d="M83.3,4.6c-22.6,0-40.9,18.3-40.9,40.9s18.3,40.9,40.9,40.9s40.9-18.3,40.9-40.9S105.9,4.6,83.3,4.6z
		 M87.6,81.2c-19.9,0-36.1-16.2-36.1-36.1S67.7,9.1,87.6,9.1s36.1,16.2,36.1,36.1S107.5,81.2,87.6,81.2z"/>
</g>
<g>
	
		<rect x="71.5" y="43.9" transform="matrix(0.1283 -0.9917 0.9917 0.1283 17.9906 110.9828)" class="st0" width="1.2" height="2.7"/>
</g>
<g>
	<path class="st0" d="M69.5,44.2l-1.3-0.2c-0.1-1.7-1.5-3.1-3.3-3.1c-1.8,0-3.3,1.5-3.3,3.3c0,1.8,1.5,3.3,3.3,3.3
		c1.5,0,2.7-1,3.2-2.3l1.3,0.2L69.5,44.2z M64.9,46.3c-1.1,0-2-0.9-2-2s0.9-2,2-2c1.1,0,2,0.9,2,2C66.9,45.4,66,46.3,64.9,46.3z"/>
</g>
<g>
	<path class="st0" d="M80.5,30.2c0-3.3-2.7-5.9-5.9-5.9c-3.3,0-5.9,2.7-5.9,5.9s2.7,5.9,5.9,5.9c0.6,0,1.1-0.1,1.7-0.2l1,2.4
		l1.1-0.5l-1-2.4C79.2,34.5,80.5,32.5,80.5,30.2z M74.6,34.7c-2.5,0-4.6-2-4.6-4.6s2-4.6,4.6-4.6s4.6,2,4.6,4.6S77.1,34.7,74.6,34.7
		z"/>
</g>
<g>
	<path class="st0" d="M81.4,41.9c-0.4,0-0.8,0.1-1.2,0.2l-1.3-3l-1.1,0.5l1.3,3c-1,0.6-1.8,1.6-2.1,2.8L75,45.1l-0.2,1.2l2.1,0.3
		c0,2.5,2,4.6,4.6,4.6c2.5,0,4.6-2,4.6-4.6C86,44,84,41.9,81.4,41.9z M81.4,49.9c-1.8,0-3.3-1.5-3.3-3.3s1.5-3.3,3.3-3.3
		c1.8,0,3.3,1.5,3.3,3.3S83.3,49.9,81.4,49.9z"/>
</g>
<g>
	<rect x="84.3" y="30.9" transform="matrix(0.3184 -0.948 0.948 0.3184 28.6498 103.7254)" class="st0" width="4.3" height="2"/>
</g>
<g>
	<path class="st0" d="M90,15.7c-2.9,0-5.2,2.4-5.2,5.2c0,2,1.1,3.7,2.7,4.6l-0.6,1.9l1.9,0.6l0.6-1.9c0.2,0,0.4,0,0.6,0
		c2.9,0,5.2-2.4,5.2-5.2S92.9,15.7,90,15.7z M90,24.1c-1.7,0-3.1-1.4-3.1-3.1s1.4-3.1,3.1-3.1s3.1,1.4,3.1,3.1S91.7,24.1,90,24.1z"
		/>
</g>
<g>
	<path class="st0" d="M109.3,31c-5.3,0-9.5,4.3-9.5,9.5c0,0.3,0,0.7,0.1,1l-4.3,0.9l0.4,1.8l4.3-0.9c1.2,3.9,4.8,6.7,9.1,6.7
		c5.3,0,9.5-4.3,9.5-9.5S114.5,31,109.3,31z M109.3,47.8c-4,0-7.2-3.2-7.2-7.2s3.2-7.2,7.2-7.2c4,0,7.2,3.2,7.2,7.2
		C116.5,44.6,113.3,47.8,109.3,47.8z"/>
</g>
<g>
	<path class="st0" d="M93.6,44.8l-0.4-1.8l-5,1c-0.6-1.7-1.9-3.1-3.4-3.9l1.2-3.6L84,35.8l-1.2,3.6c-0.5-0.1-1-0.2-1.5-0.2
		c-4,0-7.3,3.3-7.3,7.3s3.3,7.3,7.3,7.3c4,0,7.3-3.3,7.3-7.3c0-0.2,0-0.5,0-0.7L93.6,44.8z M81.3,51.7c-2.9,0-5.2-2.4-5.2-5.2
		c0-2.9,2.4-5.2,5.2-5.2s5.2,2.4,5.2,5.2C86.6,49.3,84.2,51.7,81.3,51.7z"/>
</g>
<g>
	<path class="st1" d="M152.4,53.8l-6.1-16h-0.1c0.1,1.3,0.2,2.8,0.2,4.5v11.5h-1.9v-18h3.2l5.7,14.9h0.1l5.8-14.9h3.1v18h-2.1V42.1
		c0-1.3,0.1-2.8,0.2-4.3h-0.1l-6.2,16L152.4,53.8L152.4,53.8z"/>
	<path class="st1" d="M177.4,49c0,1.6-0.6,2.8-1.7,3.7c-1.1,0.9-2.7,1.3-4.7,1.3c-2.1,0-3.8-0.3-4.9-0.8v-2c0.7,0.3,1.6,0.6,2.4,0.7
		c0.9,0.2,1.7,0.3,2.6,0.3c1.4,0,2.4-0.3,3.2-0.8c0.7-0.5,1.1-1.3,1.1-2.2c0-0.6-0.1-1.1-0.4-1.5c-0.3-0.4-0.7-0.8-1.3-1.1
		c-0.6-0.3-1.5-0.7-2.7-1.1c-1.7-0.6-2.9-1.3-3.6-2.1c-0.7-0.8-1.1-1.9-1.1-3.2c0-1.4,0.5-2.5,1.6-3.3c1-0.8,2.4-1.2,4.1-1.2
		c1.8,0,3.4,0.3,5,1l-0.7,1.8c-1.5-0.6-2.9-0.9-4.3-0.9c-1.1,0-2,0.2-2.6,0.7c-0.6,0.5-0.9,1.1-0.9,2c0,0.6,0.1,1.1,0.3,1.5
		c0.2,0.4,0.6,0.8,1.2,1.1c0.5,0.3,1.4,0.7,2.5,1.1c1.9,0.7,3.2,1.4,3.9,2.2C177,46.7,177.4,47.7,177.4,49z"/>
	<path class="st1" d="M196.7,44.7c0,2.9-0.7,5.2-2.2,6.8c-1.5,1.7-3.5,2.5-6.1,2.5c-2.7,0-4.7-0.8-6.1-2.4c-1.4-1.6-2.2-3.9-2.2-6.9
		c0-2.9,0.7-5.2,2.2-6.8c1.4-1.6,3.5-2.4,6.2-2.4c2.6,0,4.6,0.8,6.1,2.5C196,39.5,196.7,41.8,196.7,44.7z M182.4,44.7
		c0,2.4,0.5,4.3,1.6,5.6c1,1.3,2.5,1.9,4.5,1.9c2,0,3.5-0.6,4.5-1.9c1-1.3,1.5-3.1,1.5-5.6c0-2.4-0.5-4.3-1.5-5.5
		c-1-1.3-2.5-1.9-4.5-1.9c-2,0-3.5,0.6-4.6,1.9C182.9,40.5,182.4,42.3,182.4,44.7z"/>
	<path class="st1" d="M212.2,41c0,1.8-0.6,3.2-1.9,4.2c-1.2,1-3,1.5-5.3,1.5h-2.1v7.1h-2.1v-18h4.7C209.9,35.7,212.2,37.5,212.2,41z
		 M202.8,44.9h1.9c1.9,0,3.2-0.3,4-0.9c0.8-0.6,1.2-1.6,1.2-2.9c0-1.2-0.4-2.1-1.2-2.7s-2-0.9-3.7-0.9h-2.4V44.9L202.8,44.9z"/>
	<path class="st1" d="M227.3,47c0,2.2-0.6,3.9-1.7,5.2c-1.1,1.2-2.6,1.9-4.6,1.9c-1.2,0-2.3-0.3-3.2-0.9c-1-0.6-1.7-1.4-2.2-2.4
		c-0.5-1.1-0.8-2.3-0.8-3.7c0-2.2,0.5-3.9,1.7-5.2c1.1-1.2,2.6-1.8,4.6-1.8c1.9,0,3.4,0.6,4.5,1.9C226.7,43.1,227.3,44.8,227.3,47z
		 M217,47c0,1.7,0.3,3.1,1,3.9c0.7,0.9,1.7,1.4,3.1,1.4c1.3,0,2.4-0.4,3.1-1.4c0.7-0.9,1-2.2,1-3.9c0-1.7-0.3-3-1-3.9
		c-0.7-0.9-1.7-1.3-3.1-1.3c-1.3,0-2.4,0.4-3,1.3C217.4,43.9,217,45.2,217,47z"/>
	<path class="st1" d="M237.1,40c0.6,0,1.1,0.1,1.6,0.2l-0.3,1.9c-0.6-0.1-1-0.2-1.5-0.2c-1.1,0-2,0.4-2.8,1.3
		c-0.8,0.9-1.2,2-1.2,3.3v7.3h-2V40.2h1.7l0.2,2.5h0.1c0.5-0.9,1.1-1.6,1.8-2C235.5,40.2,236.2,40,237.1,40z"/>
	<path class="st1" d="M245.6,52.3c0.4,0,0.7,0,1-0.1c0.3-0.1,0.6-0.1,0.8-0.2v1.6c-0.2,0.1-0.5,0.2-1,0.3c-0.4,0.1-0.8,0.1-1.2,0.1
		c-2.6,0-3.9-1.4-3.9-4.1v-8h-1.9v-1l1.9-0.9l0.9-2.9h1.2v3.1h3.9v1.6h-3.9v8c0,0.8,0.2,1.4,0.6,1.9
		C244.4,52.1,244.9,52.3,245.6,52.3z"/>
	<path class="st1" d="M258.5,53.8l-0.4-1.9H258c-0.7,0.9-1.3,1.4-2,1.7c-0.7,0.3-1.5,0.4-2.5,0.4c-1.3,0-2.4-0.3-3.1-1
		c-0.8-0.7-1.1-1.7-1.1-3c0-2.7,2.2-4.2,6.6-4.3l2.3-0.1v-0.8c0-1.1-0.2-1.8-0.7-2.4c-0.4-0.5-1.2-0.8-2.2-0.8c-1.1,0-2.4,0.3-3.8,1
		l-0.6-1.6c0.7-0.4,1.4-0.6,2.2-0.9c0.8-0.2,1.6-0.3,2.4-0.3c1.6,0,2.8,0.3,3.6,1.1c0.8,0.7,1.2,1.9,1.2,3.4v9.2L258.5,53.8
		L258.5,53.8z M253.8,52.3c1.3,0,2.3-0.3,3-1c0.7-0.7,1.1-1.7,1.1-2.9v-1.2l-2,0.1c-1.6,0.1-2.8,0.3-3.5,0.8
		c-0.7,0.4-1.1,1.1-1.1,2.1c0,0.7,0.2,1.3,0.7,1.7C252.4,52.1,253,52.3,253.8,52.3z"/>
	<path class="st1" d="M266.3,53.8h-2V34.5h2V53.8z"/>
</g>
</svg>
